<?xml version="1.0" encoding="utf-8"?>
<svg id="master-artboard" viewBox="0 0 164.93515014648438 331.5375061035156" version="1.1" xmlns="http://www.w3.org/2000/svg" x="0px" y="0px" style="enable-background:new 0 0 1096 780;" width="164.93515014648438px" height="331.5375061035156px"><rect id="ee-background" x="0" y="0" width="164.93515014648438" height="331.5375061035156" style="fill: white; fill-opacity: 0; pointer-events: none;"/>

<g transform="matrix(1, 0, 0, 1, -322.31497716903687, -412.1208190917969)">
			<path class="st13" d="M471.5,508.1l-6.6-60.6c0-0.1,0-0.2,0-0.2c-9.7-4.5-19.8-21.2-19.8-21.2s20.2,41.3,21.2,79.9&#10;&#9;&#9;&#9;&#9;c-1-38.6-21.2-79.9-21.2-79.9c-16.3-13.2-39.8-13.2-40.3-13.2c-0.5,0-26.1,0-40.3,13.2c0,0-20.2,41.3-21.2,79.9&#10;&#9;&#9;&#9;&#9;c1-38.6,21.2-79.9,21.2-79.9s-10.1,17.2-19.8,21.7l-6.6,60.4c0,0-10.1,153.7-3.9,202c1.8,5.4,6.2,8.2,6.2,8.2&#10;&#9;&#9;&#9;&#9;c4.4,2.9,5.6-2.7,5.6-2.7l3.4-13.7l-0.4,10l2.8,4.6c5.6,10.5,23.4,6.7,23.4,6.7c4.6-2.8,8.9-2.6,8.9-2.6h20.6h0h20.6&#10;&#9;&#9;&#9;&#9;c0,0,4.3-0.2,8.9,2.6c0,0,17.8,3.8,23.4-6.7l2.8-4.6l-0.4-10l3.4,13.7c0,0,1.2,5.6,5.6,2.7c0,0,4.4-2.9,6.2-8.2&#10;&#9;&#9;&#9;&#9;C481.6,661.8,471.5,508.1,471.5,508.1z" style="fill: rgb(113, 137, 163); stroke: rgb(0, 0, 0); stroke-width: 1;"/>
		</g><path class="st14" d="M420.7,421.6c1.1,2.4,2.1,4.9,3.1,7.3c0.3,0.6,0.5,1.2,0.7,1.8l0.6,1.9l1.3,3.8l5,15l0,0l0,0&#10;&#9;&#9;&#9;&#9;c0.2,0.7,0.5,1.5,0.8,2.3c0.3,0.8,0.6,1.5,1,2.2c0.4,0.7,0.8,1.5,1.2,2.2c0.4,0.7,0.9,1.4,1.3,2.1c0.5,0.7,1,1.3,1.5,1.9&#10;&#9;&#9;&#9;&#9;c0.5,0.6,1.1,1.2,1.7,1.8c0.6,0.6,1.2,1.1,1.8,1.6c0.6,0.5,1.3,1,2,1.5l1,0.7l1.1,0.6l2.2,1.3l4.3,2.5c0.7,0.4,1.4,0.9,2.1,1.4&#10;&#9;&#9;&#9;&#9;l2.1,1.4c1.4,1,2.8,1.9,4.1,2.9c-1.5-0.7-3-1.4-4.6-2.2l-2.3-1.1c-0.8-0.4-1.5-0.7-2.2-1.2l-4.3-2.5l-2.2-1.3l-1.1-0.6l-1.1-0.7&#10;&#9;&#9;&#9;&#9;c-0.7-0.5-1.4-1-2.1-1.5c-0.7-0.5-1.3-1.1-1.9-1.7c-0.6-0.6-1.2-1.2-1.7-1.9c-0.6-0.6-1.1-1.3-1.6-2c-0.5-0.7-1-1.4-1.4-2.2&#10;&#9;&#9;&#9;&#9;c-0.4-0.7-0.9-1.5-1.2-2.2c-0.4-0.8-0.7-1.5-1.1-2.3c-0.3-0.8-0.6-1.6-0.9-2.5l0,0l-5-15l-1.3-3.8l-0.6-1.9&#10;&#9;&#9;&#9;&#9;c-0.2-0.6-0.4-1.3-0.5-1.9C422,426.8,421.3,424.2,420.7,421.6z" style="fill: rgb(90, 110, 131); stroke: rgb(0, 0, 0); stroke-width: 1;" transform="matrix(1, 0, 0, 1, -322.31497716903687, -412.1208190917969)"/><path class="st15" d="M468,514.7c0,0-6.6,15.4-8.2,54.6c0,0-2,91.2,1.6,104.8l6.6,12.1C468,686.1,476,592.7,468,514.7z" style="fill: rgb(36, 43, 45); stroke: rgb(0, 0, 0); stroke-width: 1;" transform="matrix(1, 0, 0, 1, -322.31497716903687, -412.1208190917969)"/><path d="M 429.600006 707.5 A 1.5 10.8 0 0 1 428.100006 718.3 A 1.5 10.8 0 0 1 426.600006 707.5 A 1.5 10.8 0 0 1 428.100006 696.7 A 1.5 10.8 0 0 1 429.600006 707.5 Z" class="st14" style="fill: rgb(90, 110, 131); stroke: rgb(0, 0, 0); stroke-width: 1;" transform="matrix(1, 0, 0, 1, -322.31497716903687, -412.1208190917969)"/><path d="M 453.099988 704.099976 A 1.3 9.3 0 0 1 451.799988 713.399976 A 1.3 9.3 0 0 1 450.499988 704.099976 A 1.3 9.3 0 0 1 451.799988 694.799975 A 1.3 9.3 0 0 1 453.099988 704.099976 Z" class="st14" style="fill: rgb(90, 110, 131); stroke: rgb(0, 0, 0); stroke-width: 1;" transform="matrix(1, 0, 0, 1, -322.31497716903687, -412.1208190917969)"/><path class="st14" d="M404.8,679.6c-2.6,0-3.8-1.2-3.8-1.2v-11.4c0.2-5.6,3.8-5.6,3.8-5.6s3.5,0,3.8,5.6v11.4&#10;&#9;&#9;&#9;&#9;C408.5,678.4,407.4,679.6,404.8,679.6z" style="fill: rgb(90, 110, 131); stroke: rgb(0, 0, 0); stroke-width: 1;" transform="matrix(1, 0, 0, 1, -322.31497716903687, -412.1208190917969)"/><path class="st14" d="M453.4,653.9c0,0,0.1,0.6,0.2,1.7c0,0.5,0.1,1.2,0.2,1.9c0,0.4,0.1,0.8,0.1,1.2c0,0.4-0.1,0.8-0.1,1.3&#10;&#9;&#9;&#9;&#9;c-0.2,3.6-0.5,8.4-0.8,13.2c-0.3,4.8-0.6,9.6-0.8,13.2c0,0.4,0,0.9-0.1,1.3c-0.1,0.4-0.2,0.8-0.2,1.2c-0.2,0.7-0.3,1.4-0.4,1.9&#10;&#9;&#9;&#9;&#9;c-0.2,1-0.4,1.6-0.4,1.6s-0.1-0.6-0.2-1.7c0-0.5-0.1-1.2-0.2-1.9c0-0.4-0.1-0.8-0.1-1.2c0-0.4,0.1-0.8,0.1-1.3&#10;&#9;&#9;&#9;&#9;c0.2-3.6,0.5-8.4,0.8-13.2c0.3-4.8,0.6-9.6,0.8-13.2c0-0.4,0-0.9,0.1-1.3c0.1-0.4,0.2-0.8,0.2-1.2c0.2-0.7,0.3-1.4,0.4-1.9&#10;&#9;&#9;&#9;&#9;C453.2,654.5,453.4,653.9,453.4,653.9z" style="fill: rgb(90, 110, 131); stroke: rgb(0, 0, 0); stroke-width: 1;" transform="matrix(1, 0, 0, 1, -322.31497716903687, -412.1208190917969)"/><path class="st16" d="M417.3,532.9c-0.1-2.5-1.8-8.3-1.8-8.4c-1.8-5.5-6.8-5.6-6.8-5.6h-3.8v-1.5h3.8c0.1,0,6,0.1,8.2,6.6&#10;&#9;&#9;&#9;&#9;c0.1,0.3,1.8,6,1.9,8.8L417.3,532.9z" style="fill: rgb(255, 242, 0); stroke: rgb(0, 0, 0); stroke-width: 1;" transform="matrix(1, 0, 0, 1, -322.31497716903687, -412.1208190917969)"/><path class="st16" d="M364.5,426c0,0-19.1,8.2-19.8,21.4l0,0.2C354.4,443.2,364.5,426,364.5,426z" style="fill: rgb(255, 242, 0); stroke: rgb(0, 0, 0); stroke-width: 1;" transform="matrix(1, 0, 0, 1, -322.31497716903687, -412.1208190917969)"/><path class="st16" d="M464.9,447.2c-1-13-19.8-21.2-19.8-21.2S455.1,442.7,464.9,447.2z" style="fill: rgb(255, 242, 0); stroke: rgb(0, 0, 0); stroke-width: 1;" transform="matrix(1, 0, 0, 1, -322.31497716903687, -412.1208190917969)"/><path class="st14" d="M388.9,421.6c-0.6,2.6-1.3,5.1-1.9,7.7c-0.2,0.6-0.3,1.3-0.5,1.9l-0.6,1.9l-1.3,3.8l-5,15l0,0&#10;&#9;&#9;&#9;&#9;c-0.2,0.9-0.5,1.7-0.9,2.5c-0.3,0.8-0.7,1.6-1.1,2.3c-0.4,0.8-0.8,1.5-1.2,2.2c-0.4,0.7-0.9,1.4-1.4,2.2c-0.5,0.7-1,1.4-1.6,2&#10;&#9;&#9;&#9;&#9;c-0.5,0.7-1.2,1.3-1.7,1.9c-0.6,0.6-1.2,1.2-1.9,1.7c-0.7,0.5-1.3,1.1-2.1,1.5l-1.1,0.7l-1.1,0.6l-2.2,1.3l-4.3,2.5&#10;&#9;&#9;&#9;&#9;c-0.7,0.5-1.5,0.8-2.2,1.2l-2.3,1.1c-1.5,0.7-3,1.5-4.6,2.2c1.4-1,2.7-1.9,4.1-2.9l2.1-1.4c0.7-0.5,1.4-1,2.1-1.4l4.3-2.5&#10;&#9;&#9;&#9;&#9;l2.2-1.3l1.1-0.6l1-0.7c0.7-0.4,1.3-1,2-1.5c0.6-0.5,1.2-1.1,1.8-1.6c0.6-0.6,1.2-1.2,1.7-1.8c0.5-0.6,1-1.3,1.5-1.9&#10;&#9;&#9;&#9;&#9;c0.5-0.7,0.9-1.3,1.3-2.1c0.4-0.7,0.8-1.4,1.2-2.2c0.4-0.7,0.7-1.5,1-2.2c0.3-0.8,0.6-1.5,0.8-2.3l0,0l0,0l5-15l1.3-3.8l0.6-1.9&#10;&#9;&#9;&#9;&#9;c0.2-0.6,0.5-1.2,0.7-1.8C386.8,426.5,387.8,424,388.9,421.6z" style="fill: rgb(90, 110, 131); stroke: rgb(0, 0, 0); stroke-width: 1;" transform="matrix(1, 0, 0, 1, -322.31497716903687, -412.1208190917969)"/><path class="st15" d="M341.6,514.7c0,0,6.6,15.4,8.2,54.6c0,0,2,91.2-1.6,104.8l-6.6,12.1C341.6,686.1,333.6,592.7,341.6,514.7z" style="fill: rgb(36, 43, 45); stroke: rgb(0, 0, 0); stroke-width: 1;" transform="matrix(1, 0, 0, 1, -322.31497716903687, -412.1208190917969)"/><path class="st4" d="M404.8,536.6c-40.3-0.2-54.4,8.5-54.4,8.5l5.9,108.7l24.2,7.1c7.9,1.8,15.2-3.3,15.2-3.3h9.2h0h9.2&#10;&#9;&#9;&#9;&#9;c0,0,7.3,5.1,15.2,3.3l24.2-7.1l5.9-108.7C459.2,545.2,445.1,536.4,404.8,536.6" style="fill: rgb(15, 23, 25); stroke: rgb(0, 0, 0); stroke-width: 1;" transform="matrix(1, 0, 0, 1, -322.31497716903687, -412.1208190917969)"/><path d="M 383 707.5 A 1.5 10.8 0 0 1 381.5 718.3 A 1.5 10.8 0 0 1 380 707.5 A 1.5 10.8 0 0 1 381.5 696.7 A 1.5 10.8 0 0 1 383 707.5 Z" class="st14" style="fill: rgb(90, 110, 131); stroke: rgb(0, 0, 0); stroke-width: 1;" transform="matrix(1, 0, 0, 1, -322.31497716903687, -412.1208190917969)"/><path d="M 359.099988 704.099976 A 1.3 9.3 0 0 1 357.799988 713.399976 A 1.3 9.3 0 0 1 356.499988 704.099976 A 1.3 9.3 0 0 1 357.799988 694.799975 A 1.3 9.3 0 0 1 359.099988 704.099976 Z" class="st14" style="fill: rgb(90, 110, 131); stroke: rgb(0, 0, 0); stroke-width: 1;" transform="matrix(1, 0, 0, 1, -322.31497716903687, -412.1208190917969)"/><path class="st14" d="M345.2,484l0.4,0.4c0.1,0.1,0.3,0.2,0.4,0.3c0.3,0.2,0.6,0.4,0.9,0.5c0.6,0.3,1.3,0.6,2,0.8l-0.2,0l3.1-1.9&#10;&#9;&#9;&#9;&#9;c1-0.7,2.1-1.2,3.2-1.8c1.1-0.6,2.2-1.1,3.3-1.6c1.1-0.5,2.3-0.9,3.4-1.3l3.5-1.1c1.2-0.4,2.3-0.6,3.5-0.9&#10;&#9;&#9;&#9;&#9;c1.2-0.3,2.4-0.6,3.6-0.8l3.6-0.7l3.6-0.6c1.2-0.2,2.4-0.3,3.6-0.5c2.4-0.3,4.8-0.5,7.3-0.7c2.4-0.2,4.8-0.3,7.3-0.4&#10;&#9;&#9;&#9;&#9;c2.4-0.1,4.9-0.1,7.3,0l0,1.5h0l0-1.5c2.5-0.1,4.9-0.1,7.3,0c2.4,0.1,4.9,0.2,7.3,0.4c2.4,0.2,4.8,0.4,7.3,0.7&#10;&#9;&#9;&#9;&#9;c1.2,0.2,2.4,0.3,3.6,0.5l3.6,0.6l3.6,0.7c1.2,0.2,2.4,0.5,3.6,0.8c1.2,0.3,2.4,0.6,3.5,0.9l3.5,1.1c1.1,0.4,2.3,0.8,3.4,1.3&#10;&#9;&#9;&#9;&#9;c1.1,0.4,2.2,1,3.3,1.6c1.1,0.6,2.2,1.1,3.2,1.8l3.1,1.9l-0.2,0c0.7-0.2,1.3-0.5,2-0.8c0.3-0.2,0.6-0.3,0.9-0.6&#10;&#9;&#9;&#9;&#9;c0.1-0.1,0.3-0.2,0.4-0.3l0.4-0.4l-0.3,0.4c-0.1,0.1-0.3,0.3-0.4,0.4c-0.3,0.3-0.6,0.5-0.9,0.7c-0.6,0.4-1.2,0.7-1.9,1l-0.1,0&#10;&#9;&#9;&#9;&#9;l-0.1-0.1l-3.2-1.6c-1-0.6-2.2-1-3.3-1.4c-1.1-0.4-2.2-0.9-3.4-1.3c-1.1-0.4-2.2-0.8-3.4-1.2l-3.4-1c-1.1-0.4-2.3-0.6-3.5-0.9&#10;&#9;&#9;&#9;&#9;c-1.2-0.3-2.3-0.6-3.5-0.8l-3.5-0.7l-3.6-0.6c-1.2-0.2-2.4-0.3-3.6-0.5c-2.4-0.3-4.8-0.5-7.2-0.7c-2.4-0.2-4.8-0.3-7.2-0.4&#10;&#9;&#9;&#9;&#9;c-2.4-0.1-4.8-0.1-7.2,0l0-1.5h0l0,1.5c-2.4-0.1-4.8-0.1-7.2,0c-2.4,0.1-4.8,0.2-7.2,0.4c-2.4,0.2-4.8,0.4-7.2,0.7&#10;&#9;&#9;&#9;&#9;c-1.2,0.2-2.4,0.3-3.6,0.5l-3.6,0.6l-3.5,0.7c-1.2,0.2-2.3,0.5-3.5,0.8c-1.2,0.3-2.3,0.6-3.5,0.9l-3.4,1&#10;&#9;&#9;&#9;&#9;c-1.1,0.4-2.2,0.9-3.4,1.2c-1.2,0.3-2.3,0.8-3.4,1.3c-1.1,0.5-2.3,0.9-3.3,1.4l-3.2,1.6l-0.1,0.1l-0.1,0c-0.7-0.3-1.3-0.6-1.9-1&#10;&#9;&#9;&#9;&#9;c-0.3-0.2-0.6-0.4-0.9-0.7c-0.1-0.1-0.3-0.2-0.4-0.4L345.2,484z" style="fill: rgb(90, 110, 131); stroke: rgb(0, 0, 0); stroke-width: 1;" transform="matrix(1, 0, 0, 1, -322.31497716903687, -412.1208190917969)"/><path class="st7" d="M486.6,521.5c-11.1-7.8-16-6.8-16-6.8c-0.9,6.6,9.9,9.9,9.9,9.9c5.1,2.1,5.8-0.5,5.8-0.5&#10;&#9;&#9;&#9;&#9;C486.7,523.3,486.7,522.4,486.6,521.5z" style="fill: rgb(255, 255, 255); stroke: rgb(0, 0, 0); stroke-width: 1;" transform="matrix(1, 0, 0, 1, -322.31497716903687, -412.1208190917969)"/><path class="st14" d="M486.6,521.5c-0.7-4.9-8.1-10.5-8.1-10.5c-5.1-4.3-6.5-2-6.5-2l-5.7-3v6.1l4.3,2.7&#10;&#9;&#9;&#9;&#9;C470.6,514.7,475.5,513.7,486.6,521.5z" style="fill: rgb(90, 110, 131); stroke: rgb(0, 0, 0); stroke-width: 1;" transform="matrix(1, 0, 0, 1, -322.31497716903687, -412.1208190917969)"/><path class="st7" d="M323,521.5c-0.1,0.9,0,1.8,0.4,2.6c0,0,0.6,2.6,5.8,0.5c0,0,10.8-3.3,9.9-9.9&#10;&#9;&#9;&#9;&#9;C339,514.7,334.1,513.7,323,521.5z" style="fill: rgb(255, 255, 255); stroke: rgb(0, 0, 0); stroke-width: 1;" transform="matrix(1, 0, 0, 1, -322.31497716903687, -412.1208190917969)"/><path class="st14" d="M331.1,510.9c0,0-7.4,5.6-8.1,10.5c11.1-7.8,16-6.8,16-6.8l4.3-2.7v-6.1l-5.7,3&#10;&#9;&#9;&#9;&#9;C337.6,508.9,336.2,506.6,331.1,510.9z" style="fill: rgb(90, 110, 131); stroke: rgb(0, 0, 0); stroke-width: 1;" transform="matrix(1, 0, 0, 1, -322.31497716903687, -412.1208190917969)"/><path class="st6" d="M351.9,716.6l-2.8-4.6l0.4-10l-3.4,13.7c0,0-1.2,5.6-5.6,2.7c0,0-4.4-2.9-6.2-8.2c0.1,0.8,0.2,1.6,0.3,2.4&#10;&#9;&#9;&#9;&#9;c0,0,0.6,14.8,19.9,22.8C350.4,733.6,351.9,716.6,351.9,716.6z" style="fill: rgb(237, 28, 36); stroke: rgb(0, 0, 0); stroke-width: 1;" transform="matrix(1, 0, 0, 1, -322.31497716903687, -412.1208190917969)"/><path class="st6" d="M469.2,718.3c-4.4,2.9-5.6-2.7-5.6-2.7l-3.4-13.7l0.4,10l-2.8,4.6c0,0,1.5,17-2.6,18.7&#10;&#9;&#9;&#9;&#9;c19.3-8,19.9-22.8,19.9-22.8c0.1-0.8,0.2-1.6,0.3-2.4C473.6,715.5,469.2,718.3,469.2,718.3z" style="fill: rgb(237, 28, 36); stroke: rgb(0, 0, 0); stroke-width: 1;" transform="matrix(1, 0, 0, 1, -322.31497716903687, -412.1208190917969)"/><path class="st15" d="M457.7,716.6c-5.6,10.5-23.4,6.7-23.4,6.7c-4.6-2.8-8.9-2.6-8.9-2.6h-20.6h0h-20.6c0,0-4.3-0.2-8.9,2.6&#10;&#9;&#9;&#9;&#9;c0,0-17.8,3.8-23.4-6.7c0,0-1.5,17,2.6,18.7c2.6,1.1,5.6,2,8.9,2.8c0,0,17.3,5.1,41.5,4.9c24.2,0.2,41.5-4.9,41.5-4.9&#10;&#9;&#9;&#9;&#9;c3.3-0.8,6.3-1.8,8.9-2.8C459.2,733.6,457.7,716.6,457.7,716.6z" style="fill: rgb(36, 43, 45); stroke: rgb(0, 0, 0); stroke-width: 1;" transform="matrix(1, 0, 0, 1, -322.31497716903687, -412.1208190917969)"/><path class="st14" d="M349.4,702l0.5-1.7c0.2-0.6,0.4-1.1,0.6-1.7c0.3-0.5,0.5-1.1,0.8-1.6c0.3-0.5,0.6-1.1,1-1.6&#10;&#9;&#9;&#9;&#9;c0.2-0.3,0.4-0.5,0.6-0.7c0.2-0.2,0.4-0.5,0.6-0.7c0.5-0.4,0.9-0.8,1.5-1.2c0.3-0.2,0.5-0.3,0.8-0.5c0.3-0.1,0.6-0.3,0.9-0.4&#10;&#9;&#9;&#9;&#9;c0.3-0.1,0.6-0.2,1-0.3c0.3-0.1,0.6-0.1,1.1-0.1l-0.1,0c1.9-0.1,3.9,0,5.8,0h5.8h11.5h23.1v1.5h0v-1.5h23.1h11.5h5.8&#10;&#9;&#9;&#9;&#9;c1.9,0,3.8-0.1,5.8,0l-0.1,0c0.4,0,0.7,0,1.1,0.1c0.3,0.1,0.6,0.1,1,0.3c0.3,0.1,0.6,0.2,0.9,0.4c0.3,0.1,0.6,0.3,0.8,0.5&#10;&#9;&#9;&#9;&#9;c0.5,0.3,1,0.7,1.5,1.2c0.2,0.2,0.4,0.5,0.6,0.7c0.2,0.2,0.4,0.5,0.6,0.7c0.4,0.5,0.7,1,1,1.6c0.3,0.5,0.5,1.1,0.8,1.6&#10;&#9;&#9;&#9;&#9;c0.2,0.6,0.4,1.1,0.6,1.7l0.5,1.7l-0.6-1.7c-0.2-0.5-0.5-1.1-0.8-1.6c-0.3-0.5-0.6-1-0.9-1.5c-0.3-0.5-0.7-1-1.1-1.4&#10;&#9;&#9;&#9;&#9;c-0.2-0.2-0.4-0.4-0.6-0.6c-0.2-0.2-0.4-0.4-0.6-0.6c-0.4-0.4-0.9-0.7-1.4-0.9c-0.3-0.1-0.5-0.3-0.8-0.3&#10;&#9;&#9;&#9;&#9;c-0.3-0.1-0.5-0.2-0.8-0.2c-0.3-0.1-0.5-0.1-0.8-0.1c-0.3,0-0.6,0-0.7,0l-0.1,0c-1.9,0.1-3.8,0-5.8,0h-5.8h-11.5h-23.1v-1.5h0&#10;&#9;&#9;&#9;&#9;v1.5h-23.1h-11.5h-5.8c-1.9,0-3.8,0.1-5.8,0l-0.1,0c-0.2,0-0.5,0-0.7,0c-0.3,0-0.5,0.1-0.8,0.1c-0.3,0.1-0.5,0.1-0.8,0.2&#10;&#9;&#9;&#9;&#9;c-0.3,0.1-0.5,0.2-0.8,0.3c-0.5,0.3-1,0.6-1.4,0.9c-0.2,0.2-0.4,0.4-0.6,0.6c-0.2,0.2-0.4,0.4-0.6,0.6c-0.4,0.4-0.7,0.9-1.1,1.4&#10;&#9;&#9;&#9;&#9;c-0.3,0.5-0.6,1-0.9,1.5c-0.3,0.5-0.5,1.1-0.8,1.6L349.4,702z" style="fill: rgb(90, 110, 131); stroke: rgb(0, 0, 0); stroke-width: 1;" transform="matrix(1, 0, 0, 1, -322.31497716903687, -412.1208190917969)"/><path class="st14" d="M356.3,653.9c0,0,0.2,0.6,0.4,1.6c0.1,0.5,0.2,1.2,0.4,1.9c0.1,0.4,0.2,0.7,0.2,1.2c0.1,0.4,0,0.8,0.1,1.3&#10;&#9;&#9;&#9;&#9;c0.2,3.6,0.5,8.4,0.8,13.2c0.3,4.8,0.6,9.6,0.8,13.2c0,0.5,0.1,0.9,0.1,1.3c0,0.4-0.1,0.8-0.1,1.2c-0.1,0.7-0.1,1.4-0.2,1.9&#10;&#9;&#9;&#9;&#9;c-0.1,1.1-0.2,1.7-0.2,1.7s-0.2-0.6-0.4-1.6c-0.1-0.5-0.2-1.2-0.4-1.9c-0.1-0.4-0.2-0.7-0.2-1.2c-0.1-0.4,0-0.8-0.1-1.3&#10;&#9;&#9;&#9;&#9;c-0.2-3.6-0.5-8.4-0.8-13.2c-0.3-4.8-0.6-9.6-0.8-13.2c0-0.5-0.1-0.9-0.1-1.3c0-0.4,0.1-0.8,0.1-1.2c0.1-0.7,0.1-1.4,0.2-1.9&#10;&#9;&#9;&#9;&#9;C356.2,654.5,356.3,653.9,356.3,653.9z" style="fill: rgb(90, 110, 131); stroke: rgb(0, 0, 0); stroke-width: 1;" transform="matrix(1, 0, 0, 1, -322.31497716903687, -412.1208190917969)"/><path class="st15" d="M404.8,484L404.8,484L404.8,484C404.8,484,404.8,484,404.8,484c-0.5,0-55.4-1.6-55,20.3l2.7,29.2&#10;&#9;&#9;&#9;&#9;c0,0,0.5,5.6,6.6,4.2c0,0,16.7-3.5,32.5-4.8h0c0.1-2.7,1.9-8.6,1.9-8.6c2-6.1,7.5-6.1,7.5-6.1h3.8h3.8c0,0,5.5,0,7.5,6.1&#10;&#9;&#9;&#9;&#9;c0,0,1.8,5.9,1.9,8.6H418c15.7,1.3,32.5,4.8,32.5,4.8c6,1.4,6.6-4.2,6.6-4.2l2.7-29.2C460.2,482.4,405.3,484,404.8,484z" style="fill: rgb(36, 43, 45); stroke: rgb(0, 0, 0); stroke-width: 1;" transform="matrix(1, 0, 0, 1, -322.31497716903687, -412.1208190917969)"/><path class="st4" d="M416.2,524.3c-2-6.1-7.5-6.1-7.5-6.1h-3.8H401c0,0-5.5,0-7.5,6.1c0,0-1.8,5.9-1.9,8.6h0&#10;&#9;&#9;&#9;&#9;c4.6-0.4,9.2-0.5,13.2-0.4c4-0.2,8.5,0,13.2,0.4h0.1C418,530.2,416.2,524.3,416.2,524.3z" style="fill: rgb(15, 23, 25); stroke: rgb(0, 0, 0); stroke-width: 1;" transform="matrix(1, 0, 0, 1, -322.31497716903687, -412.1208190917969)"/><path class="st15" d="M437.5,641.7c0,4-3.3,7.3-7.3,7.3h-50.8c-4,0-7.3-3.3-7.3-7.3v-61.8c0-4,3.3-7.3,7.3-7.3h50.8&#10;&#9;&#9;&#9;&#9;c4,0,7.3,3.3,7.3,7.3V641.7z" style="fill: rgb(36, 43, 45); stroke: rgb(0, 0, 0); stroke-width: 1;" transform="matrix(1, 0, 0, 1, -322.31497716903687, -412.1208190917969)"/><path class="st14" d="M445.1,426c0,0,0.7,1.1,1.8,3.1c0.5,1,1.2,2.2,1.9,3.6c0.4,0.7,0.8,1.5,1.2,2.3c0.4,0.8,0.7,1.7,1.1,2.6&#10;&#9;&#9;&#9;&#9;c1.5,3.6,3.1,7.9,4.7,12.5c0.8,2.3,1.6,4.7,2.3,7.2c0.4,1.2,0.7,2.5,1.1,3.7c0.3,1.3,0.7,2.5,1,3.8c0.7,2.5,1.3,5.1,1.9,7.5&#10;&#9;&#9;&#9;&#9;c0.6,2.5,1.1,5,1.6,7.4c0.5,2.4,0.8,4.7,1.2,6.9c0.4,2.2,0.7,4.3,0.9,6.2c0.3,1.9,0.4,3.7,0.5,5.3c0,1.6,0,3,0.1,4.1&#10;&#9;&#9;&#9;&#9;c0,2.3,0,3.6,0,3.6s-0.2-1.3-0.6-3.5c-0.2-1.1-0.4-2.5-0.6-4.1c-0.1-0.8-0.3-1.6-0.5-2.5c-0.2-0.9-0.2-1.8-0.4-2.8&#10;&#9;&#9;&#9;&#9;c-0.2-1.9-0.5-4-0.9-6.2c-0.4-2.2-0.7-4.5-1.2-6.9c-0.5-2.4-0.9-4.8-1.6-7.3c-0.6-2.5-1.2-5-1.9-7.5c-0.3-1.2-0.7-2.5-1-3.7&#10;&#9;&#9;&#9;&#9;c-0.4-1.2-0.7-2.5-1.1-3.7c-0.7-2.5-1.5-4.8-2.3-7.1c-1.6-4.6-3.2-8.8-4.6-12.4c-0.4-0.9-0.8-1.7-1.1-2.6&#10;&#9;&#9;&#9;&#9;c-0.3-0.8-0.6-1.6-0.8-2.4c-0.5-1.5-1-2.8-1.4-3.8C445.6,427.2,445.1,426,445.1,426z" style="fill: rgb(90, 110, 131); stroke: rgb(0, 0, 0); stroke-width: 1;" transform="matrix(1, 0, 0, 1, -322.31497716903687, -412.1208190917969)"/><path class="st14" d="M364.5,426c0,0-0.5,1.2-1.3,3.3c-0.4,1.1-0.9,2.4-1.4,3.8c-0.3,0.7-0.5,1.5-0.8,2.4&#10;&#9;&#9;&#9;&#9;c-0.3,0.8-0.7,1.7-1.1,2.6c-1.5,3.6-3.1,7.8-4.6,12.4c-0.8,2.3-1.6,4.7-2.3,7.1c-0.4,1.2-0.7,2.5-1.1,3.7c-0.3,1.2-0.7,2.5-1,3.7&#10;&#9;&#9;&#9;&#9;c-0.7,2.5-1.3,5-1.9,7.5c-0.6,2.5-1.1,4.9-1.6,7.3c-0.5,2.4-0.8,4.7-1.2,6.9c-0.4,2.2-0.7,4.3-0.9,6.2c-0.1,1-0.2,1.9-0.4,2.8&#10;&#9;&#9;&#9;&#9;c-0.2,0.9-0.4,1.7-0.5,2.5c-0.2,1.6-0.4,2.9-0.6,4.1c-0.4,2.3-0.6,3.5-0.6,3.5s0-1.3,0-3.6c0-1.1,0-2.5,0.1-4.1&#10;&#9;&#9;&#9;&#9;c0-1.6,0.2-3.4,0.5-5.3c0.2-1.9,0.5-4,0.9-6.2c0.4-2.2,0.7-4.6,1.2-6.9c0.5-2.4,0.9-4.9,1.6-7.4c0.6-2.5,1.2-5,1.9-7.5&#10;&#9;&#9;&#9;&#9;c0.3-1.3,0.7-2.5,1-3.8c0.4-1.2,0.7-2.5,1.1-3.7c0.7-2.5,1.5-4.9,2.3-7.2c1.6-4.6,3.2-8.9,4.7-12.5c0.4-0.9,0.7-1.8,1.1-2.6&#10;&#9;&#9;&#9;&#9;c0.4-0.8,0.8-1.5,1.2-2.3c0.7-1.4,1.4-2.6,1.9-3.6C363.8,427.1,364.5,426,364.5,426z" style="fill: rgb(90, 110, 131); stroke: rgb(0, 0, 0); stroke-width: 1;" transform="matrix(1, 0, 0, 1, -322.31497716903687, -412.1208190917969)"/>
</svg>