<?xml version="1.0" encoding="utf-8"?>
<svg id="master-artboard" viewBox="0 0 236.59536743164062 723.8194580078125" version="1.1" xmlns="http://www.w3.org/2000/svg" x="0px" y="0px" style="enable-background:new 0 0 1096 780;" width="236.59536743164062px" height="723.8194580078125px"><rect id="ee-background" x="0" y="0" width="236.59536743164062" height="723.8194580078125" style="fill: white; fill-opacity: 0; pointer-events: none;"/>

<g transform="matrix(1, 0, 0, 1, -49.72069400548935, -27.030960083007812)">
			<path d="M 116.599998 611.700012 H 220.199997 V 657.500011 H 116.599998 V 611.700012 Z" class="st23" style="fill: rgb(31, 38, 40);"/>
		</g><path d="M 157.8000030517578 190.3000030517578 L 72.4000015258789 186.5 L 156.8000030517578 154.8000030517578 L 159.1999969482422 161.1999969482422 L 106.0999984741211 181.10000610351562 L 158.10000610351562 183.39999389648438 Z" class="st4" style="fill: rgb(15, 23, 25);" transform="matrix(1, 0, 0, 1, -49.72069400548935, -27.030960083007812)"/><path d="M 153 231.10000610351562 L 62.900001525878906 170.10000610351562 L 159.1999969482422 206.8000030517578 L 156.6999969482422 213.1999969482422 L 115.5999984741211 197.5 L 156.8000030517578 225.39999389648438 Z" class="st4" style="fill: rgb(15, 23, 25);" transform="matrix(1, 0, 0, 1, -49.72069400548935, -27.030960083007812)"/><path class="st7" d="M168.4,90.4c-88,0.1-101,32.9-101,32.9V57.4h100.7l100.9,0v65.8C269,123.3,256.4,90.5,168.4,90.4z" style="fill: rgb(255, 255, 255); stroke: rgb(0, 0, 0); stroke-width: 5;" transform="matrix(1, 0, 0, 1, -49.72069400548935, -27.030960083007812)"/><path class="st7" d="M270.2,129.3l-2.2-5.6c-0.1-0.3-13.6-32.1-99.6-32.2c-85.9,0.1-99.8,31.9-99.9,32.2l-2.2,5.4l0-72.8l203.9,0&#10;&#9;&#9;&#9;&#9;V129.3z M68.6,58.6v60.5c6.3-8.8,28.9-29.8,99.8-29.9c70.8,0.1,93.2,21,99.5,29.9V58.6L68.6,58.6z" style="fill: rgb(255, 255, 255);" transform="matrix(1, 0, 0, 1, -49.72069400548935, -27.030960083007812)"/><path d="M 79.800003 385.399994 H 257 V 622.5 H 79.800003 V 385.399994 Z" class="st23" style="fill: rgb(31, 38, 40); stroke: rgb(0, 0, 0); stroke-width: 5;" transform="matrix(1, 0, 0, 1, -49.72069400548935, -27.030960083007812)"/><path class="st4" d="M286.7,208.9c0,6.3-5.7,11.4-12.7,11.4h-19.8c-7,0-12.7-5.1-12.7-11.4V141c0-6.3,5.7-11.4,12.7-11.4H274&#10;&#9;&#9;&#9;&#9;c7,0,12.7,5.1,12.7,11.4V208.9z" style="fill: rgb(15, 23, 25);" transform="matrix(1, 0, 0, 1, -49.72069400548935, -27.030960083007812)"/><path d="M 116.599998 692.599976 H 220.199997 V 712.499975 H 116.599998 V 692.599976 Z" class="st7" style="fill: rgb(255, 255, 255); stroke: rgb(0, 0, 0); stroke-width: 4;" transform="matrix(1, 0, 0, 1, -49.72069400548935, -27.030960083007812)"/><path class="st7" d="M221.4,713.6H115.5v-22.2h105.9V713.6z M117.7,711.4h101.3v-17.6H117.7V711.4z" style="fill: rgb(255, 255, 255);" transform="matrix(1, 0, 0, 1, -49.72069400548935, -27.030960083007812)"/><path d="M 224.599994 693.400024 A 2.2 53.799999 0 0 1 222.399994 747.200024 A 2.2 53.799999 0 0 1 220.199994 693.400024 A 2.2 53.799999 0 0 1 222.399994 639.600025 A 2.2 53.799999 0 0 1 224.599994 693.400024 Z" class="st7" style="fill: rgb(255, 255, 255);" transform="matrix(1, 0, 0, 1, -49.72069400548935, -27.030960083007812)"/><path class="st7" d="M222.4,748.4c-1.3,0-2,0-2.7-16.8c-0.4-10.2-0.6-23.7-0.6-38.1c0-14.4,0.2-27.9,0.6-38.1&#10;&#9;&#9;&#9;&#9;c0.7-16.9,1.4-16.9,2.7-16.9c1.3,0,2,0,2.7,16.9c0.4,10.2,0.6,23.7,0.6,38.1c0,14.4-0.2,27.9-0.6,38.1&#10;&#9;&#9;&#9;&#9;C224.4,748.4,223.7,748.4,222.4,748.4z M222.4,647.2c-0.6,8.8-1.1,25.2-1.1,46.2c0,21,0.5,37.4,1.1,46.2&#10;&#9;&#9;&#9;&#9;c0.6-8.8,1.1-25.2,1.1-46.2C223.5,672.5,223,656,222.4,647.2z" style="fill: rgb(255, 255, 255); stroke: rgb(0, 0, 0); stroke-width: 5;" transform="matrix(1, 0, 0, 1, -49.72069400548935, -27.030960083007812)"/><path d="M 86.300003 627.400024 H 250.5 V 637.100024 H 86.300003 V 627.400024 Z" class="st4" style="fill: rgb(15, 23, 25);" transform="matrix(1, 0, 0, 1, -49.72069400548935, -27.030960083007812)"/><path class="st21" d="M253.7,632.2c0,5.3-4.3,9.7-9.7,9.7h-20.7c-5.3,0-9.7-4.3-9.7-9.7l0,0c0-5.3,4.3-9.7,9.7-9.7H244&#10;&#9;&#9;&#9;&#9;C249.3,622.6,253.7,626.9,253.7,632.2L253.7,632.2z" style="fill: rgb(128, 130, 133);" transform="matrix(1, 0, 0, 1, -49.72069400548935, -27.030960083007812)"/><path d="M 178.6999969482422 190.3000030517578 L 178.39999389648438 183.5 L 230.39999389648438 181.1999969482422 L 177.3000030517578 161.1999969482422 L 179.6999969482422 154.8000030517578 L 264 186.5 Z" class="st4" style="fill: rgb(15, 23, 25);" transform="matrix(1, 0, 0, 1, -49.72069400548935, -27.030960083007812)"/><path d="M 183.5 231.10000610351562 L 179.60000610351562 225.39999389648438 L 220.8000030517578 197.5 L 179.6999969482422 213.1999969482422 L 177.3000030517578 206.8000030517578 L 273.6000061035156 170.10000610351562 Z" class="st4" style="fill: rgb(15, 23, 25);" transform="matrix(1, 0, 0, 1, -49.72069400548935, -27.030960083007812)"/><path d="M 134.5 131.800003 H 202.099998 V 152.300003 H 134.5 V 131.800003 Z" class="st4" style="fill: rgb(15, 23, 25);" transform="matrix(1, 0, 0, 1, -49.72069400548935, -27.030960083007812)"/><path class="st4" d="M49.8,208.9c0,6.3,5.7,11.4,12.7,11.4h19.8c7,0,12.7-5.1,12.7-11.4V141c0-6.3-5.7-11.4-12.7-11.4H62.5&#10;&#9;&#9;&#9;&#9;c-7,0-12.7,5.1-12.7,11.4V208.9z" style="fill: rgb(15, 23, 25);" transform="matrix(1, 0, 0, 1, -49.72069400548935, -27.030960083007812)"/><path d="M 116.299999 693.400024 A 2.2 53.799999 0 0 1 114.099998 747.200024 A 2.2 53.799999 0 0 1 111.899998 693.400024 A 2.2 53.799999 0 0 1 114.099998 639.600025 A 2.2 53.799999 0 0 1 116.299999 693.400024 Z" class="st7" style="fill: rgb(255, 255, 255);" transform="matrix(1, 0, 0, 1, -49.72069400548935, -27.030960083007812)"/><path class="st7" d="M114.1,748.4c-1.3,0-2,0-2.7-16.8c-0.4-10.2-0.6-23.7-0.6-38.1s0.2-27.9,0.6-38.1&#10;&#9;&#9;&#9;&#9;c0.7-16.9,1.4-16.9,2.7-16.9c1.3,0,2,0,2.7,16.9c0.4,10.2,0.6,23.7,0.6,38.1s-0.2,27.9-0.6,38.1&#10;&#9;&#9;&#9;&#9;C116.1,748.4,115.3,748.4,114.1,748.4z M114.1,647.2c-0.6,8.8-1.1,25.2-1.1,46.2s0.5,37.4,1.1,46.2c0.6-8.8,1.1-25.2,1.1-46.2&#10;&#9;&#9;&#9;&#9;S114.6,656,114.1,647.2z" style="fill: rgb(255, 255, 255); stroke: rgb(0, 0, 0); stroke-width: 5;" transform="matrix(1, 0, 0, 1, -49.72069400548935, -27.030960083007812)"/><path class="st21" d="M82.8,632.2c0,5.3,4.3,9.7,9.7,9.7h20.7c5.3,0,9.7-4.3,9.7-9.7l0,0c0-5.3-4.3-9.7-9.7-9.7H92.5&#10;&#9;&#9;&#9;&#9;C87.1,622.5,82.8,626.9,82.8,632.2L82.8,632.2z" style="fill: rgb(128, 130, 133);" transform="matrix(1, 0, 0, 1, -49.72069400548935, -27.030960083007812)"/><path class="st24" d="M168.2,536.2c0,0-37.2-22.9-49.1,17.3c6.6,24.8,12.1,51,12.1,69l37,0h37c0-18.3,5.7-45.1,12.4-70.2&#10;&#9;&#9;&#9;&#9;C205.4,513.8,168.2,536.2,168.2,536.2z" style="fill: rgb(24, 31, 32);" transform="matrix(1, 0, 0, 1, -49.72069400548935, -27.030960083007812)"/><path class="st25" d="M258.8,380c1.7-86.5-90.6-56.8-90.6-56.8S76,293.5,77.7,380c0,0-2.8,42.7,19.9,103.6&#10;&#9;&#9;&#9;&#9;c0,0,11.9,33.5,21.5,69.9c11.9-40.3,49.1-17.3,49.1-17.3s37.2-22.4,49.4,16.1c9.6-36,21.2-68.7,21.2-68.7&#10;&#9;&#9;&#9;&#9;C261.6,422.7,258.8,380,258.8,380z" style="fill: rgb(107, 8, 19);" transform="matrix(1, 0, 0, 1, -49.72069400548935, -27.030960083007812)"/><path class="st4" d="M195.3,585.3c0,0,0.9,0.4,2.4,1.1c0.7,0.4,1.7,0.8,2.6,1.4c0.5,0.3,1,0.6,1.6,0.9c0.3,0.2,0.4,0.4,0.6,0.7&#10;&#9;&#9;&#9;&#9;c0.1,0.3,0.3,0.5,0.5,0.8c3,4.2,6.9,9.7,10.9,15.3c3.9,5.6,7.9,11.1,10.9,15.3c0.2,0.3,0.3,0.5,0.6,0.7c0.2,0.2,0.4,0.5,0.4,0.8&#10;&#9;&#9;&#9;&#9;c0.1,0.6,0.2,1.2,0.3,1.8c0.2,1.1,0.4,2.1,0.5,2.9c0.2,1.7,0.3,2.7,0.3,2.7s-0.9-0.4-2.4-1.2c-0.7-0.4-1.6-0.9-2.6-1.4&#10;&#9;&#9;&#9;&#9;c-0.5-0.3-1-0.6-1.6-0.9c-0.3-0.1-0.5-0.4-0.6-0.7c-0.1-0.3-0.3-0.5-0.5-0.8c-3-4.2-6.9-9.7-10.9-15.3&#10;&#9;&#9;&#9;&#9;c-3.9-5.6-7.9-11.1-10.9-15.3c-0.2-0.3-0.3-0.5-0.6-0.7c-0.2-0.2-0.4-0.4-0.5-0.8c-0.1-0.6-0.2-1.2-0.3-1.8&#10;&#9;&#9;&#9;&#9;c-0.2-1.1-0.4-2.1-0.5-3C195.4,586.3,195.3,585.3,195.3,585.3z" style="fill: rgb(15, 23, 25);" transform="matrix(1, 0, 0, 1, -49.72069400548935, -27.030960083007812)"/><path class="st4" d="M141.2,585.3c0,0-0.1,1-0.3,2.7c-0.1,0.8-0.3,1.8-0.5,3c-0.1,0.6-0.2,1.2-0.3,1.8c-0.1,0.3-0.2,0.6-0.5,0.8&#10;&#9;&#9;&#9;&#9;c-0.2,0.2-0.4,0.5-0.6,0.7c-3,4.2-6.9,9.7-10.9,15.3c-3.9,5.6-7.9,11.1-10.9,15.3c-0.2,0.3-0.4,0.5-0.5,0.8&#10;&#9;&#9;&#9;&#9;c-0.1,0.3-0.3,0.5-0.6,0.7c-0.6,0.3-1.1,0.6-1.6,0.9c-1,0.6-1.9,1-2.6,1.4c-1.5,0.8-2.4,1.2-2.4,1.2s0.1-1,0.3-2.7&#10;&#9;&#9;&#9;&#9;c0.1-0.8,0.3-1.8,0.5-2.9c0.1-0.6,0.2-1.2,0.3-1.8c0-0.3,0.2-0.6,0.4-0.8c0.2-0.2,0.4-0.5,0.6-0.7c3-4.2,6.9-9.7,10.9-15.3&#10;&#9;&#9;&#9;&#9;c3.9-5.6,7.9-11.1,10.9-15.3c0.2-0.3,0.4-0.5,0.5-0.8c0.1-0.3,0.3-0.5,0.6-0.7c0.6-0.3,1.1-0.6,1.6-0.9c1-0.6,1.9-1,2.6-1.4&#10;&#9;&#9;&#9;&#9;C140.2,585.6,141.2,585.3,141.2,585.3z" style="fill: rgb(15, 23, 25);" transform="matrix(1, 0, 0, 1, -49.72069400548935, -27.030960083007812)"/><path class="st26" d="M168.4,29.7c0,0-15.6-1.5-18.6,16.1v92.8c0,0,1.9-17.6-9.5,137.8c0,0-8,31.6-12.2,58.1&#10;&#9;&#9;&#9;&#9;c0,0-17.8,130.4,40.2,201.8c57.9-71.3,40.2-201.7,40.2-201.7c-4.3-26.5-12.2-58.1-12.2-58.1c-11.4-155.4-9.5-137.8-9.5-137.8&#10;&#9;&#9;&#9;&#9;V45.9C183.6,28.2,168.4,29.7,168.4,29.7z" style="fill: rgb(133, 3, 29); stroke: rgb(0, 0, 0); stroke-width: 5;" transform="matrix(1, 0, 0, 1, -49.72069400548935, -27.030960083007812)"/><path class="st4" d="M189.3,385.7c0,6.3-5.1,11.4-11.4,11.4h-19.4c-6.3,0-11.4-5.1-11.4-11.4v-85.4c0-6.3,5.1-11.4,11.4-11.4&#10;&#9;&#9;&#9;&#9;h19.4c6.3,0,11.4,5.1,11.4,11.4V385.7z" style="fill: rgb(15, 23, 25);" transform="matrix(1, 0, 0, 1, -49.72069400548935, -27.030960083007812)"/><path class="st26" d="M264.4,328.6c0,5.7-4.1,10.3-9.3,10.3h-50.7c-5.1,0-9.3-4.6-9.3-10.3l0,0c0-5.7,4.1-10.3,9.3-10.3h50.7&#10;&#9;&#9;&#9;&#9;C260.2,318.3,264.4,322.9,264.4,328.6L264.4,328.6z" style="fill: rgb(133, 3, 29);" transform="matrix(1, 0, 0, 1, -49.72069400548935, -27.030960083007812)"/><path class="st26" d="M72.5,328.6c0,5.7,4.1,10.3,9.3,10.3h50.7c5.1,0,9.3-4.6,9.3-10.3l0,0c0-5.7-4.1-10.3-9.3-10.3H81.7&#10;&#9;&#9;&#9;&#9;C76.6,318.3,72.5,322.9,72.5,328.6L72.5,328.6z" style="fill: rgb(133, 3, 29);" transform="matrix(1, 0, 0, 1, -49.72069400548935, -27.030960083007812)"/><path class="st4" d="M286.7,660.5c0,6.3-5.7,11.4-12.7,11.4h-19.8c-7,0-12.7-5.1-12.7-11.4v-67.9c0-6.3,5.7-11.4,12.7-11.4H274&#10;&#9;&#9;&#9;&#9;c7,0,12.7,5.1,12.7,11.4V660.5z" style="fill: rgb(15, 23, 25); stroke: rgb(0, 0, 0); stroke-width: 5;" transform="matrix(1, 0, 0, 1, -49.72069400548935, -27.030960083007812)"/><path class="st4" d="M49.8,660.5c0,6.3,5.7,11.4,12.7,11.4h19.8c7,0,12.7-5.1,12.7-11.4v-67.9c0-6.3-5.7-11.4-12.7-11.4H62.5&#10;&#9;&#9;&#9;&#9;c-7,0-12.7,5.1-12.7,11.4V660.5z" style="fill: rgb(15, 23, 25); stroke: rgb(0, 0, 0); stroke-width: 5;" transform="matrix(1, 0, 0, 1, -49.72069400548935, -27.030960083007812)"/>
<path d="M 169.3292999267578 418.783447265625 L 169.3292999267578 418.783447265625" style="fill: rgb(255, 255, 255); fill-opacity: 1; stroke: rgb(0, 0, 0); stroke-opacity: 1; stroke-width: 5; paint-order: stroke;" transform="matrix(1, 0, 0, 1, -49.72069400548935, -27.030960083007812)"/><path d="M 263.99395751953125 156.53677368164062" style="fill: rgb(255, 255, 255); fill-opacity: 1; stroke: rgb(0, 0, 0); stroke-opacity: 1; stroke-width: 5; paint-order: stroke;" transform="matrix(1, 0, 0, 1, -49.72069400548935, -27.030960083007812)"/></svg>