<?xml version="1.0" encoding="utf-8"?>
<svg id="master-artboard" viewBox="0 0 160.90261840820312 337.9226379394531" version="1.1" xmlns="http://www.w3.org/2000/svg" x="0px" y="0px" style="enable-background:new 0 0 1096 780;" width="160.90261840820312px" height="337.9226379394531px"><rect id="ee-background" x="0" y="0" width="160.90261840820312" height="337.9226379394531" style="fill: white; fill-opacity: 0; pointer-events: none;"/>

<g transform="matrix(1, 0, 0, 1, -324.1799850463867, -54.131720542907715)">
			<path class="st17" d="M479.3,309c-2.7-15.6-3.9-39.1-3.9-39.1c3.4-39.3-0.3-114.6-0.3-114.6c12.9-52.6-15.2-86-15.2-86l-33.6-13&#10;&#9;&#9;&#9;&#9;l-21.4-2l-21.4,2l-33.6,13c0,0-28.1,33.4-15.2,86c0,0-3.7,75.3-0.3,114.6c0,0-1.2,23.5-3.9,39.1c0,0-5.2,36.2,17.6,62.8h57h57&#10;&#9;&#9;&#9;&#9;C484.6,345.1,479.3,309,479.3,309z M456.4,181c0,0-0.9,5-6.7,3.8c0,0-21.4-4-44.9-4c-23.5,0-44.9,4-44.9,4&#10;&#9;&#9;&#9;&#9;c-5.8,1.3-6.7-3.8-6.7-3.8l-10.4-54.2c3.2-4.3,6.9-7.9,11-10.9c10.7-20.1,24.5-33.4,24.5-33.4c4.3,2.3,14.6,15.5,17.2,18.9&#10;&#9;&#9;&#9;&#9;c5.6-0.6,9.3-0.6,9.3-0.6s3.8,0,9.7,0.6c2.8-3.8,12.6-16.7,16.7-18.9c0,0,14.3,13.1,25.1,33.8c3.9,2.9,7.4,6.3,10.4,10.4&#10;&#9;&#9;&#9;&#9;L456.4,181z" style="fill: rgb(66, 66, 64); stroke: rgb(0, 0, 0); stroke-width: 1; stroke-opacity: 1;"/>
		</g><path class="st18" d="M404.8,391.3c-15.3,0.1-28.4-2.3-28.4-2.3l-30.7-14.1h-0.6v-11.7l31.3,7.2l28.4-7.2l28.4,7.2l31.3-7.2v11.7&#10;&#9;&#9;&#9;&#9;h-0.6L433.2,389C433.2,389,420,391.4,404.8,391.3z" style="fill: rgb(59, 60, 58); stroke: rgb(0, 0, 0); stroke-width: 1;" transform="matrix(1, 0, 0, 1, -324.1799850463867, -54.131720542907715)"/><path class="st19" d="M431.2,83.1c0,0-0.2-0.4-0.5-1.1c-0.1-0.4-0.3-0.8-0.5-1.3c-0.1-0.2-0.2-0.5-0.3-0.8&#10;&#9;&#9;&#9;&#9;c-0.1-0.3-0.1-0.6-0.2-0.9c-0.5-2.5-1.1-5.9-1.7-9.2c-0.6-3.4-1.3-6.7-1.7-9.2c0-0.3-0.2-0.6-0.2-0.9c0-0.3,0-0.6,0-0.8&#10;&#9;&#9;&#9;&#9;c0-0.5,0-1,0-1.4c0-0.8,0-1.2,0-1.2s0.2,0.4,0.5,1.1c0.1,0.4,0.3,0.8,0.5,1.3c0.1,0.2,0.2,0.5,0.3,0.8c0.1,0.3,0.1,0.6,0.2,0.9&#10;&#9;&#9;&#9;&#9;c0.5,2.5,1.1,5.9,1.7,9.2c0.6,3.4,1.3,6.7,1.7,9.2c0,0.3,0.2,0.6,0.2,0.9c0,0.3,0,0.6,0,0.8c0,0.5,0,1,0,1.4&#10;&#9;&#9;&#9;&#9;C431.2,82.7,431.2,83.1,431.2,83.1z" style="fill: rgb(56, 57, 55); stroke: rgb(0, 0, 0); stroke-width: 1;" transform="matrix(1, 0, 0, 1, -324.1799850463867, -54.131720542907715)"/><path d="M 458.5 72.69999694824219 L 455.3999938964844 80.9000015258789 L 466.70001220703125 93.5999984741211 L 468.70001220703125 91.4000015258789 L 462.1000061035156 73.80000305175781 Z" class="st12" style="fill: rgb(241, 242, 242); stroke: rgb(0, 0, 0); stroke-width: 1;" transform="matrix(1, 0, 0, 1, -324.1799850463867, -54.131720542907715)"/><path class="st4" d="M404.8,59.5c-1.2,0-2.2,1-2.2,2.2h4.4C407,60.5,406,59.5,404.8,59.5z" style="fill: rgb(15, 23, 25); stroke: rgb(0, 0, 0); stroke-width: 1;" transform="matrix(1, 0, 0, 1, -324.1799850463867, -54.131720542907715)"/><path class="st19" d="M466.7,93.6c0,0,0.2,0.5,0.5,1.5c0.2,0.5,0.3,1,0.6,1.7c0.1,0.3,0.2,0.7,0.3,1.1c0.1,0.4,0.1,0.8,0.2,1.2&#10;&#9;&#9;&#9;&#9;c0.3,1.7,0.5,3.6,0.8,5.7c0.1,1,0.2,2.1,0.3,3.3c0.1,1.1,0.2,2.2,0.3,3.4c0,1.1,0.1,2.3,0.1,3.4c0,1.1,0.1,2.2,0.1,3.3&#10;&#9;&#9;&#9;&#9;c0,1.1,0,2.1-0.1,3.1c0,1,0,1.9-0.1,2.7c-0.1,0.4,0,0.8-0.1,1.2c-0.1,0.4-0.2,0.7-0.3,1.1c-0.2,0.7-0.3,1.3-0.4,1.7&#10;&#9;&#9;&#9;&#9;c-0.3,1-0.4,1.5-0.4,1.5s0-0.6-0.1-1.6c0-0.5,0-1.1-0.1-1.8c0-0.3,0-0.7,0-1.1c0-0.4,0.1-0.8,0.1-1.2c0.1-0.8,0.1-1.7,0.1-2.7&#10;&#9;&#9;&#9;&#9;c0-1,0-2,0.1-3c0-1-0.1-2.1-0.1-3.2c0-1.1-0.1-2.2-0.1-3.3c-0.1-1.1-0.2-2.2-0.3-3.3c-0.1-1.1-0.2-2.2-0.3-3.2&#10;&#9;&#9;&#9;&#9;c-0.3-2.1-0.5-4-0.8-5.7c0-0.4-0.2-0.8-0.2-1.2c0-0.4,0-0.8,0-1.1c0-0.7,0-1.3-0.1-1.8C466.7,94.1,466.7,93.6,466.7,93.6z" style="fill: rgb(56, 57, 55); stroke: rgb(0, 0, 0); stroke-width: 1;" transform="matrix(1, 0, 0, 1, -324.1799850463867, -54.131720542907715)"/><path class="st19" d="M433.9,389h-1.4v-18.8l0.1-0.2c30.6-39.3,33.4-74.9,33.4-75.3l-3.1-43l1.4-0.1l3.1,43.1&#10;&#9;&#9;&#9;&#9;c0,0.5-2.8,36.3-33.5,75.9V389z" style="fill: rgb(56, 57, 55); stroke: rgb(0, 0, 0); stroke-width: 1;" transform="matrix(1, 0, 0, 1, -324.1799850463867, -54.131720542907715)"/><path d="M 432.899994 182.5 H 434.299994 V 370.399994 H 432.899994 V 182.5 Z" transform="matrix(1, 0.004355808719992638, -0.004355808719992638, 1, -322.9715805053711, -56.0175199508667)" class="st19" style="fill: rgb(56, 57, 55); stroke: rgb(0, 0, 0); stroke-width: 1;"/><path class="st19" d="M465.1,363.4l-1.3-0.4c10.6-30.8,10.9-92.5,10.9-93.1l1.4,0C476.1,270.5,475.8,332.4,465.1,363.4z" style="fill: rgb(56, 57, 55); stroke: rgb(0, 0, 0); stroke-width: 1;" transform="matrix(1, 0, 0, 1, -324.1799850463867, -54.131720542907715)"/><path class="st12" d="M470.3,176.6l5.9,9.6l8.1-2.8C484.3,183.4,481.3,174.2,470.3,176.6z" style="fill: rgb(241, 242, 242); stroke: rgb(0, 0, 0); stroke-width: 1;" transform="matrix(1, 0, 0, 1, -324.1799850463867, -54.131720542907715)"/><path class="st20" d="M473.5,273.2c-0.1,1.9-1.7,3.3-3.5,3.2l0,0c-1.9-0.1-3.3-1.7-3.2-3.5l0.3-6.5c0.1-1.9,1.7-3.3,3.5-3.2l0,0&#10;&#9;&#9;&#9;&#9;c1.9,0.1,3.3,1.7,3.2,3.5L473.5,273.2z" style="fill: rgb(230, 231, 232); stroke: rgb(0, 0, 0); stroke-width: 1;" transform="matrix(1, 0, 0, 1, -324.1799850463867, -54.131720542907715)"/><path d="M 472.699994 266.799988 A 2.3 2.3 0 0 1 470.399994 269.099988 A 2.3 2.3 0 0 1 468.099994 266.799988 A 2.3 2.3 0 0 1 470.399994 264.499988 A 2.3 2.3 0 0 1 472.699994 266.799988 Z" class="st21" style="fill: rgb(128, 130, 133); stroke: rgb(0, 0, 0); stroke-width: 1;" transform="matrix(1, 0, 0, 1, -324.1799850463867, -54.131720542907715)"/><path d="M 472.400006 272.899994 A 2.3 2.3 0 0 1 470.100006 275.199994 A 2.3 2.3 0 0 1 467.800006 272.899994 A 2.3 2.3 0 0 1 470.100006 270.599994 A 2.3 2.3 0 0 1 472.400006 272.899994 Z" class="st21" style="fill: rgb(128, 130, 133); stroke: rgb(0, 0, 0); stroke-width: 1;" transform="matrix(1, 0, 0, 1, -324.1799850463867, -54.131720542907715)"/><path d="M 462.100006 253.899994 H 478.000006 V 255.299994 H 462.100006 V 253.899994 Z" transform="matrix(0.7558000087738037, 0.654800295829773, -0.654800295829773, 0.7558000087738037, -42.70128631591797, -299.77660274505615)" class="st19" style="fill: rgb(56, 57, 55); stroke: rgb(0, 0, 0); stroke-width: 1;"/><path d="M 465.200012 297.799988 H 475.700012 V 299.199988 H 465.200012 V 297.799988 Z" transform="matrix(0.7077000141143799, 0.7064999938011169, -0.7064999938011169, 0.7077000141143799, 24.19532012939453, -299.2509984970093)" class="st19" style="fill: rgb(56, 57, 55); stroke: rgb(0, 0, 0); stroke-width: 1;"/><path class="st19" d="M378.3,82.6c0,0,0-0.4,0-1.2c0-0.4,0-0.8,0-1.3c0-0.3,0-0.5,0-0.8c0-0.3,0.1-0.6,0.2-0.9&#10;&#9;&#9;&#9;&#9;c0.5-2.5,1.1-5.8,1.7-9c0.6-3.3,1.3-6.6,1.7-9c0.1-0.3,0.1-0.6,0.2-0.9c0.1-0.3,0.2-0.5,0.3-0.8c0.2-0.5,0.4-0.9,0.5-1.2&#10;&#9;&#9;&#9;&#9;c0.3-0.7,0.5-1.1,0.5-1.1s0,0.4,0,1.2c0,0.4,0,0.8,0,1.3c0,0.3,0,0.5,0,0.8c0,0.3-0.1,0.6-0.2,0.9c-0.5,2.5-1.1,5.8-1.7,9&#10;&#9;&#9;&#9;&#9;c-0.6,3.3-1.3,6.6-1.7,9c-0.1,0.3-0.1,0.6-0.2,0.9c-0.1,0.3-0.2,0.5-0.3,0.8c-0.2,0.5-0.4,0.9-0.5,1.2&#10;&#9;&#9;&#9;&#9;C378.5,82.2,378.3,82.6,378.3,82.6z" style="fill: rgb(56, 57, 55); stroke: rgb(0, 0, 0); stroke-width: 1;" transform="matrix(1, 0, 0, 1, -324.1799850463867, -54.131720542907715)"/><path d="M 351.1000061035156 72.69999694824219 L 354.20001220703125 80.9000015258789 L 342.79998779296875 93.5999984741211 L 340.79998779296875 91.4000015258789 L 347.5 73.80000305175781 Z" class="st12" style="fill: rgb(241, 242, 242); stroke: rgb(0, 0, 0); stroke-width: 1;" transform="matrix(1, 0, 0, 1, -324.1799850463867, -54.131720542907715)"/><g transform="matrix(1, 0, 0, 1, -324.1799850463867, -54.131720542907715)">
				<path class="st4" d="M378.3,82.6c0,0-13.8,13.3-24.5,33.4c13.7-10,31.2-13.4,41.6-14.5C392.9,98.1,382.6,84.8,378.3,82.6z" style="fill: rgb(15, 23, 25); stroke: rgb(0, 0, 0); stroke-width: 1;"/>
			</g><path class="st22" d="M378.3,85.7c0,0-13.8,10.1-24.5,30.2c13.7-10,31.2-13.4,41.6-14.5C392.9,98.1,382.6,88,378.3,85.7z" style="fill: rgb(159, 29, 29); stroke: rgb(0, 0, 0); stroke-width: 1;" transform="matrix(1, 0, 0, 1, -324.1799850463867, -54.131720542907715)"/><g transform="matrix(1, 0, 0, 1, -324.1799850463867, -54.131720542907715)">
				<path class="st4" d="M431.1,82.6c0,0,14.3,12.1,24.8,33.1c-13.8-9.9-31.3-13.1-41.8-14.1C416.7,98.3,426.8,84.9,431.1,82.6z" style="fill: rgb(15, 23, 25); stroke: rgb(0, 0, 0); stroke-width: 1;"/>
			</g><path class="st22" d="M431.1,85.8c0,0,14.3,10.6,25.2,30.6c-13.8-9.9-31.7-13.7-42.2-14.7C416.7,98.3,426.9,88.1,431.1,85.8z" style="fill: rgb(159, 29, 29); stroke: rgb(0, 0, 0); stroke-width: 1;" transform="matrix(1, 0, 0, 1, -324.1799850463867, -54.131720542907715)"/><path class="st4" d="M456.3,116.4c0.2,0.4,0.4,0.7,0.6,1.1C456.7,117.1,456.5,116.8,456.3,116.4c-13.6-10.2-31.1-13.7-41.8-14.9&#10;&#9;&#9;&#9;&#9;c-0.5,0.7-0.8,1.1-0.8,1.1s0.3-0.4,0.8-1.1c-5.9-0.7-9.7-0.6-9.7-0.6s-3.6,0-9.3,0.6c0.4,0.5,0.6,0.8,0.6,0.8s-0.2-0.3-0.6-0.8&#10;&#9;&#9;&#9;&#9;c-10.5,1.1-27.9,4.5-41.6,14.5c-0.4,0.8-0.8,1.5-1.2,2.3c0.4-0.8,0.8-1.5,1.2-2.3c-4.1,3-7.9,6.6-11,10.9l10.4,54.2&#10;&#9;&#9;&#9;&#9;c0,0,0.9,5,6.7,3.8c0,0,21.4-4,44.9-4c23.5,0,44.9,4,44.9,4c5.8,1.3,6.7-3.8,6.7-3.8l10.4-54.2&#10;&#9;&#9;&#9;&#9;C463.7,122.7,460.2,119.3,456.3,116.4z" style="fill: rgb(15, 23, 25); stroke: rgb(0, 0, 0); stroke-width: 1;" transform="matrix(1, 0, 0, 1, -324.1799850463867, -54.131720542907715)"/><path class="st22" d="M408.4,302.2v1.8c0,0.4,0.3,0.9,0.7,1.1l3.2,1.8c0.4,0.2,0.9,0.2,1.3,0l3.2-1.8c0.4-0.2,0.7-0.7,0.7-1.1&#10;&#9;&#9;&#9;&#9;v-1.8l-4.5,2L408.4,302.2z" style="fill: rgb(159, 29, 29); stroke: rgb(0, 0, 0); stroke-width: 1;" transform="matrix(1, 0, 0, 1, -324.1799850463867, -54.131720542907715)"/><path class="st4" d="M416.7,299.2l-3.2-1.8c-0.4-0.2-1-0.2-1.3,0l-3.2,1.8c-0.4,0.2-0.7,0.7-0.7,1.1v1.8l4.5,2l4.5-2v-1.8&#10;&#9;&#9;&#9;&#9;C417.4,300,417.1,299.4,416.7,299.2z" style="fill: rgb(15, 23, 25); stroke: rgb(0, 0, 0); stroke-width: 1;" transform="matrix(1, 0, 0, 1, -324.1799850463867, -54.131720542907715)"/><path class="st22" d="M408.4,315.7v1.8c0,0.4,0.3,0.9,0.7,1.1l3.2,1.8c0.4,0.2,0.9,0.2,1.3,0l3.2-1.8c0.4-0.2,0.7-0.7,0.7-1.1&#10;&#9;&#9;&#9;&#9;v-1.8l-4.5,2L408.4,315.7z" style="fill: rgb(159, 29, 29); stroke: rgb(0, 0, 0); stroke-width: 1;" transform="matrix(1, 0, 0, 1, -324.1799850463867, -54.131720542907715)"/><path class="st4" d="M416.7,312.8l-3.2-1.8c-0.4-0.2-1-0.2-1.3,0l-3.2,1.8c-0.4,0.2-0.7,0.7-0.7,1.1v1.8l4.5,2l4.5-2v-1.8&#10;&#9;&#9;&#9;&#9;C417.4,313.5,417.1,313,416.7,312.8z" style="fill: rgb(15, 23, 25); stroke: rgb(0, 0, 0); stroke-width: 1;" transform="matrix(1, 0, 0, 1, -324.1799850463867, -54.131720542907715)"/><path class="st22" d="M408.4,329.3v1.8c0,0.4,0.3,0.9,0.7,1.1l3.2,1.8c0.4,0.2,0.9,0.2,1.3,0l3.2-1.8c0.4-0.2,0.7-0.7,0.7-1.1&#10;&#9;&#9;&#9;&#9;v-1.8l-4.5,2L408.4,329.3z" style="fill: rgb(159, 29, 29); stroke: rgb(0, 0, 0); stroke-width: 1;" transform="matrix(1, 0, 0, 1, -324.1799850463867, -54.131720542907715)"/><path class="st4" d="M416.7,326.3l-3.2-1.8c-0.4-0.2-1-0.2-1.3,0l-3.2,1.8c-0.4,0.2-0.7,0.7-0.7,1.1v1.8l4.5,2l4.5-2v-1.8&#10;&#9;&#9;&#9;&#9;C417.4,327,417.1,326.5,416.7,326.3z" style="fill: rgb(15, 23, 25); stroke: rgb(0, 0, 0); stroke-width: 1;" transform="matrix(1, 0, 0, 1, -324.1799850463867, -54.131720542907715)"/><path class="st22" d="M408.4,342.8v1.8c0,0.4,0.3,0.9,0.7,1.1l3.2,1.8c0.4,0.2,0.9,0.2,1.3,0l3.2-1.8c0.4-0.2,0.7-0.7,0.7-1.1&#10;&#9;&#9;&#9;&#9;v-1.8l-4.5,2L408.4,342.8z" style="fill: rgb(159, 29, 29); stroke: rgb(0, 0, 0); stroke-width: 1;" transform="matrix(1, 0, 0, 1, -324.1799850463867, -54.131720542907715)"/><path class="st4" d="M416.7,339.9l-3.2-1.8c-0.4-0.2-1-0.2-1.3,0l-3.2,1.8c-0.4,0.2-0.7,0.7-0.7,1.1v1.8l4.5,2l4.5-2V341&#10;&#9;&#9;&#9;&#9;C417.4,340.6,417.1,340.1,416.7,339.9z" style="fill: rgb(15, 23, 25); stroke: rgb(0, 0, 0); stroke-width: 1;" transform="matrix(1, 0, 0, 1, -324.1799850463867, -54.131720542907715)"/><path class="st4" d="M416.7,353.4l-3.2-1.8c-0.4-0.2-1-0.2-1.3,0l-3.2,1.8c-0.4,0.2-0.7,0.7-0.7,1.1v1.8l4.5,2l4.5-2v-1.8&#10;&#9;&#9;&#9;&#9;C417.4,354.1,417.1,353.6,416.7,353.4z" style="fill: rgb(15, 23, 25); stroke: rgb(0, 0, 0); stroke-width: 1;" transform="matrix(1, 0, 0, 1, -324.1799850463867, -54.131720542907715)"/><path class="st22" d="M408.4,356.4v1.8c0,0.4,0.3,0.9,0.7,1.1l3.2,1.8c0.4,0.2,0.9,0.2,1.3,0l3.2-1.8c0.4-0.2,0.7-0.7,0.7-1.1&#10;&#9;&#9;&#9;&#9;v-1.8l-4.5,2L408.4,356.4z" style="fill: rgb(159, 29, 29); stroke: rgb(0, 0, 0); stroke-width: 1;" transform="matrix(1, 0, 0, 1, -324.1799850463867, -54.131720542907715)"/><path class="st22" d="M392.2,302.2v1.8c0,0.4,0.3,0.9,0.7,1.1l3.2,1.8c0.4,0.2,0.9,0.2,1.3,0l3.2-1.8c0.4-0.2,0.7-0.7,0.7-1.1&#10;&#9;&#9;&#9;&#9;v-1.8l-4.5,2L392.2,302.2z" style="fill: rgb(159, 29, 29); stroke: rgb(0, 0, 0); stroke-width: 1;" transform="matrix(1, 0, 0, 1, -324.1799850463867, -54.131720542907715)"/><path class="st4" d="M400.5,299.2l-3.2-1.8c-0.4-0.2-0.9-0.2-1.3,0l-3.2,1.8c-0.4,0.2-0.7,0.7-0.7,1.1v1.8l4.5,2l4.5-2v-1.8&#10;&#9;&#9;&#9;&#9;C401.2,300,400.9,299.4,400.5,299.2z" style="fill: rgb(15, 23, 25); stroke: rgb(0, 0, 0); stroke-width: 1;" transform="matrix(1, 0, 0, 1, -324.1799850463867, -54.131720542907715)"/><path class="st22" d="M392.2,315.7v1.8c0,0.4,0.3,0.9,0.7,1.1l3.2,1.8c0.4,0.2,0.9,0.2,1.3,0l3.2-1.8c0.4-0.2,0.7-0.7,0.7-1.1&#10;&#9;&#9;&#9;&#9;v-1.8l-4.5,2L392.2,315.7z" style="fill: rgb(159, 29, 29); stroke: rgb(0, 0, 0); stroke-width: 1;" transform="matrix(1, 0, 0, 1, -324.1799850463867, -54.131720542907715)"/><path class="st4" d="M400.5,312.8l-3.2-1.8c-0.4-0.2-0.9-0.2-1.3,0l-3.2,1.8c-0.4,0.2-0.7,0.7-0.7,1.1v1.8l4.5,2l4.5-2v-1.8&#10;&#9;&#9;&#9;&#9;C401.2,313.5,400.9,313,400.5,312.8z" style="fill: rgb(15, 23, 25); stroke: rgb(0, 0, 0); stroke-width: 1;" transform="matrix(1, 0, 0, 1, -324.1799850463867, -54.131720542907715)"/><path class="st22" d="M392.2,329.3v1.8c0,0.4,0.3,0.9,0.7,1.1l3.2,1.8c0.4,0.2,0.9,0.2,1.3,0l3.2-1.8c0.4-0.2,0.7-0.7,0.7-1.1&#10;&#9;&#9;&#9;&#9;v-1.8l-4.5,2L392.2,329.3z" style="fill: rgb(159, 29, 29); stroke: rgb(0, 0, 0); stroke-width: 1;" transform="matrix(1, 0, 0, 1, -324.1799850463867, -54.131720542907715)"/><path class="st4" d="M400.5,326.3l-3.2-1.8c-0.4-0.2-0.9-0.2-1.3,0l-3.2,1.8c-0.4,0.2-0.7,0.7-0.7,1.1v1.8l4.5,2l4.5-2v-1.8&#10;&#9;&#9;&#9;&#9;C401.2,327,400.9,326.5,400.5,326.3z" style="fill: rgb(15, 23, 25); stroke: rgb(0, 0, 0); stroke-width: 1;" transform="matrix(1, 0, 0, 1, -324.1799850463867, -54.131720542907715)"/><path class="st22" d="M392.2,342.8v1.8c0,0.4,0.3,0.9,0.7,1.1l3.2,1.8c0.4,0.2,0.9,0.2,1.3,0l3.2-1.8c0.4-0.2,0.7-0.7,0.7-1.1&#10;&#9;&#9;&#9;&#9;v-1.8l-4.5,2L392.2,342.8z" style="fill: rgb(159, 29, 29); stroke: rgb(0, 0, 0); stroke-width: 1;" transform="matrix(1, 0, 0, 1, -324.1799850463867, -54.131720542907715)"/><path class="st4" d="M400.5,339.9l-3.2-1.8c-0.4-0.2-0.9-0.2-1.3,0l-3.2,1.8c-0.4,0.2-0.7,0.7-0.7,1.1v1.8l4.5,2l4.5-2V341&#10;&#9;&#9;&#9;&#9;C401.2,340.6,400.9,340.1,400.5,339.9z" style="fill: rgb(15, 23, 25); stroke: rgb(0, 0, 0); stroke-width: 1;" transform="matrix(1, 0, 0, 1, -324.1799850463867, -54.131720542907715)"/><path class="st22" d="M392.2,356.4v1.8c0,0.4,0.3,0.9,0.7,1.1l3.2,1.8c0.4,0.2,0.9,0.2,1.3,0l3.2-1.8c0.4-0.2,0.7-0.7,0.7-1.1&#10;&#9;&#9;&#9;&#9;v-1.8l-4.5,2L392.2,356.4z" style="fill: rgb(159, 29, 29); stroke: rgb(0, 0, 0); stroke-width: 1;" transform="matrix(1, 0, 0, 1, -324.1799850463867, -54.131720542907715)"/><path class="st4" d="M400.5,353.4l-3.2-1.8c-0.4-0.2-0.9-0.2-1.3,0l-3.2,1.8c-0.4,0.2-0.7,0.7-0.7,1.1v1.8l4.5,2l4.5-2v-1.8&#10;&#9;&#9;&#9;&#9;C401.2,354.1,400.9,353.6,400.5,353.4z" style="fill: rgb(15, 23, 25); stroke: rgb(0, 0, 0); stroke-width: 1;" transform="matrix(1, 0, 0, 1, -324.1799850463867, -54.131720542907715)"/><path class="st19" d="M342.8,93.6c0,0,0,0.6,0,1.6c0,0.5,0,1.1-0.1,1.8c0,0.3,0,0.7,0,1.1c0,0.4-0.1,0.8-0.2,1.2&#10;&#9;&#9;&#9;&#9;c-0.3,1.7-0.5,3.6-0.8,5.7c-0.1,1-0.2,2.1-0.3,3.2c-0.1,1.1-0.2,2.2-0.3,3.3c0,1.1-0.1,2.2-0.1,3.3c0,1.1-0.1,2.2-0.1,3.2&#10;&#9;&#9;&#9;&#9;c0,1,0,2.1,0.1,3c0,1,0,1.9,0.1,2.7c0,0.4,0.1,0.8,0.1,1.2c0,0.4,0,0.7,0,1.1c0,0.7,0,1.3-0.1,1.8c0,1-0.1,1.6-0.1,1.6&#10;&#9;&#9;&#9;&#9;s-0.2-0.5-0.4-1.5c-0.1-0.5-0.3-1.1-0.4-1.7c-0.1-0.3-0.2-0.7-0.3-1.1c-0.1-0.4-0.1-0.8-0.1-1.2c-0.1-0.9-0.1-1.8-0.1-2.7&#10;&#9;&#9;&#9;&#9;c0-1,0-2-0.1-3.1c0-1.1,0.1-2.2,0.1-3.3c0-1.1,0.1-2.2,0.1-3.4c0.1-1.1,0.2-2.3,0.3-3.4c0.1-1.1,0.2-2.2,0.3-3.3&#10;&#9;&#9;&#9;&#9;c0.3-2.1,0.5-4.1,0.8-5.7c0.1-0.4,0.1-0.8,0.2-1.2c0.1-0.4,0.2-0.7,0.3-1.1c0.2-0.7,0.4-1.2,0.6-1.7&#10;&#9;&#9;&#9;&#9;C342.6,94.1,342.8,93.6,342.8,93.6z" style="fill: rgb(56, 57, 55); stroke: rgb(0, 0, 0); stroke-width: 1;" transform="matrix(1, 0, 0, 1, -324.1799850463867, -54.131720542907715)"/><path class="st19" d="M377,389h-1.4v-18.4c-30.7-39.6-33.5-75.5-33.5-75.8l3.1-43.2l1.4,0.1l-3.1,43.1c0,0.3,2.8,35.9,33.4,75.2&#10;&#9;&#9;&#9;&#9;l0.1,0.2V389z" style="fill: rgb(56, 57, 55); stroke: rgb(0, 0, 0); stroke-width: 1;" transform="matrix(1, 0, 0, 1, -324.1799850463867, -54.131720542907715)"/><path d="M 282.100006 275.799988 H 470 V 277.199988 H 282.100006 V 275.799988 Z" transform="matrix(0.00366601231507957, 1, -1, 0.00366601231507957, 326.9208755493164, -154.68251705169678)" class="st19" style="fill: rgb(56, 57, 55); stroke: rgb(0, 0, 0); stroke-width: 1;"/><path class="st19" d="M344.4,363.4c-10.6-31-11-93-11-93.6l1.4,0c0,0.6,0.3,62.3,10.9,93.1L344.4,363.4z" style="fill: rgb(56, 57, 55); stroke: rgb(0, 0, 0); stroke-width: 1;" transform="matrix(1, 0, 0, 1, -324.1799850463867, -54.131720542907715)"/><path class="st12" d="M339.2,176.6l-5.9,9.6l-8.1-2.8C325.2,183.4,327.9,173.6,339.2,176.6z" style="fill: rgb(241, 242, 242); stroke: rgb(0, 0, 0); stroke-width: 1;" transform="matrix(1, 0, 0, 1, -324.1799850463867, -54.131720542907715)"/><path d="M 338.799988 246.600006 H 340.199988 V 262.500006 H 338.799988 V 246.600006 Z" transform="matrix(0.6545003056526184, 0.7560999989509583, -0.7560999989509583, 0.6545003056526184, -14.391990661621094, -222.82872676849365)" class="st19" style="fill: rgb(56, 57, 55); stroke: rgb(0, 0, 0); stroke-width: 1;"/><path d="M 338.399994 293.299988 H 339.799994 V 303.799988 H 338.399994 V 293.299988 Z" transform="matrix(0.7073000073432922, 0.7068999409675598, -0.7068999409675598, 0.7073000073432922, -13.903678894042969, -206.48840999603271)" class="st19" style="fill: rgb(56, 57, 55); stroke: rgb(0, 0, 0); stroke-width: 1;"/><path d="M 457.70001220703125 258.20001220703125 L 449.8999938964844 255.3000030517578 L 359.70001220703125 255.3000030517578 L 351.79998779296875 258.20001220703125 L 351.3999938964844 256.8999938964844 L 359.6000061035156 253.89999389648438 L 450.1000061035156 253.89999389648438 L 458.20001220703125 256.8999938964844 Z" class="st19" style="fill: rgb(56, 57, 55); stroke: rgb(0, 0, 0); stroke-width: 1;" transform="matrix(1, 0, 0, 1, -324.1799850463867, -54.131720542907715)"/><path class="st4" d="M468.5,129.4c0,0,5,97.9-8.7,136.7C459.8,266.1,449.1,243.3,468.5,129.4z" style="fill: rgb(15, 23, 25); stroke: rgb(0, 0, 0); stroke-width: 1;" transform="matrix(1, 0, 0, 1, -324.1799850463867, -54.131720542907715)"/><path class="st4" d="M341,129.4c0,0-5,97.9,8.7,136.7C349.7,266.1,360.4,243.3,341,129.4z" style="fill: rgb(15, 23, 25); stroke: rgb(0, 0, 0); stroke-width: 1;" transform="matrix(1, 0, 0, 1, -324.1799850463867, -54.131720542907715)"/><path class="st22" d="M442.3,275.3L442.3,275.3c-0.5-6.6-8.4-12.7-8.4-12.7s-7.9,6.1-8.4,12.7h0c-0.6,0.7-1,1.6-1,2.5v6.6&#10;&#9;&#9;&#9;&#9;c0,1.2,0.8,2.6,1.9,3.2l5.7,3.3c0.5,0.3,1.2,0.5,1.9,0.5c0.7,0,1.3-0.2,1.9-0.5l5.7-3.3c1.1-0.6,1.9-2,1.9-3.2v-6.6&#10;&#9;&#9;&#9;&#9;C443.3,276.9,442.9,276,442.3,275.3z" style="fill: rgb(159, 29, 29); stroke: rgb(0, 0, 0); stroke-width: 1;" transform="matrix(1, 0, 0, 1, -324.1799850463867, -54.131720542907715)"/><path class="st22" d="M367.3,275.3L367.3,275.3c0.5-6.6,8.4-12.7,8.4-12.7s7.9,6.1,8.4,12.7h0c0.6,0.7,1,1.6,1,2.5v6.6&#10;&#9;&#9;&#9;&#9;c0,1.2-0.8,2.6-1.9,3.2l-5.7,3.3c-0.5,0.3-1.2,0.5-1.9,0.5c-0.7,0-1.3-0.2-1.9-0.5l-5.7-3.3c-1.1-0.6-1.9-2-1.9-3.2v-6.6&#10;&#9;&#9;&#9;&#9;C366.3,276.9,366.7,276,367.3,275.3z" style="fill: rgb(159, 29, 29); stroke: rgb(0, 0, 0); stroke-width: 1;" transform="matrix(1, 0, 0, 1, -324.1799850463867, -54.131720542907715)"/><path class="st4" d="M425.9,277.8c0-0.7,0.5-1.7,1.2-2l5.7-3.3c0.6-0.4,1.7-0.4,2.3,0l5.7,3.3c0.6,0.4,1.2,1.3,1.2,2v6.6&#10;&#9;&#9;&#9;&#9;c0,0.7-0.5,1.7-1.2,2l-5.7,3.3c-0.6,0.4-1.7,0.4-2.3,0l-5.7-3.3c-0.6-0.4-1.2-1.3-1.2-2V277.8z" style="fill: rgb(15, 23, 25); stroke: rgb(0, 0, 0); stroke-width: 1;" transform="matrix(1, 0, 0, 1, -324.1799850463867, -54.131720542907715)"/><path class="st4" d="M383.7,277.8c0-0.7-0.5-1.7-1.2-2l-5.7-3.3c-0.6-0.4-1.7-0.4-2.3,0l-5.7,3.3c-0.6,0.4-1.2,1.3-1.2,2v6.6&#10;&#9;&#9;&#9;&#9;c0,0.7,0.5,1.7,1.2,2l5.7,3.3c0.6,0.4,1.7,0.4,2.3,0l5.7-3.3c0.6-0.4,1.2-1.3,1.2-2V277.8z" style="fill: rgb(15, 23, 25); stroke: rgb(0, 0, 0); stroke-width: 1;" transform="matrix(1, 0, 0, 1, -324.1799850463867, -54.131720542907715)"/><path class="st18" d="M471.1,169.4l-0.8,7.2l14,6.8C484.3,183.4,486.8,174.6,471.1,169.4z" style="fill: rgb(59, 60, 58); stroke: rgb(0, 0, 0); stroke-width: 1;" transform="matrix(1, 0, 0, 1, -324.1799850463867, -54.131720542907715)"/><path class="st18" d="M338.4,169.4l0.8,7.2l-14,6.8C325.2,183.4,322.7,174.6,338.4,169.4z" style="fill: rgb(59, 60, 58); stroke: rgb(0, 0, 0); stroke-width: 1;" transform="matrix(1, 0, 0, 1, -324.1799850463867, -54.131720542907715)"/>
</svg>