<?xml version="1.0" encoding="utf-8"?>
<svg id="master-artboard" viewBox="0 0 148.67572021484375 338.0511779785156" version="1.1" xmlns="http://www.w3.org/2000/svg" x="0px" y="0px" style="enable-background:new 0 0 1096 780;" width="148.67572021484375px" height="338.0511779785156px"><rect id="ee-background" x="0" y="0" width="148.67572021484375" height="338.0511779785156" style="fill: white; fill-opacity: 0; pointer-events: none;"/>

<g transform="matrix(0.4720069169998169, 0, 0, 0.4720069169998169, -347.28021240234375, -15.61004638671875)">
			<path class="st1" d="M893.2,105.9H759.8l8.1-42.7C782.1,33,893.2,33.5,893.2,33.5h0c0,0,111.2-0.5,125.3,29.6l8.1,42.7H893.2" style="fill: rgb(128, 151, 193); stroke: rgb(0, 0, 0); stroke-width: 1;"/>
		</g><path class="st1" d="M1010.9,85.9c0,0,23.6,2.1,23.3,23.8v57.7v57.7c0.3,21.8-23.3,23.8-23.3,23.8V85.9z" style="fill: rgb(128, 151, 193); stroke: rgb(0, 0, 0); stroke-width: 1;" transform="matrix(0.4720069169998169, 0, 0, 0.4720069169998169, -347.28021240234375, -15.61004638671875)"/><path class="st1" d="M775.5,85.9c0,0-23.6,2.1-23.3,23.8v57.7v57.7c-0.3,21.8,23.3,23.8,23.3,23.8V85.9z" style="fill: rgb(128, 151, 193); stroke: rgb(0, 0, 0); stroke-width: 1;" transform="matrix(0.4720069169998169, 0, 0, 0.4720069169998169, -347.28021240234375, -15.61004638671875)"/><path class="st1" d="M1010.9,490.2c0,0,23.6,2.1,23.3,23.8v57.7v57.7c0.3,21.7-23.3,23.8-23.3,23.8V490.2z" style="fill: rgb(128, 151, 193); stroke: rgb(0, 0, 0); stroke-width: 1;" transform="matrix(0.4720069169998169, 0, 0, 0.4720069169998169, -347.28021240234375, -15.61004638671875)"/><path class="st1" d="M775.5,490.2c0,0-23.6,2.1-23.3,23.8v57.7v57.7c-0.3,21.7,23.3,23.8,23.3,23.8V490.2z" style="fill: rgb(128, 151, 193); stroke: rgb(0, 0, 0); stroke-width: 1;" transform="matrix(0.4720069169998169, 0, 0, 0.4720069169998169, -347.28021240234375, -15.61004638671875)"/><path class="st2" d="M1024.3,698.6V236.9V100.4c-2.6-22-9-31.4-9-31.4c-20-27.9-121.7-25.4-122-25.4h0h0h0&#10;&#9;&#9;&#9;&#9;c-0.3,0-102-2.5-122,25.4c0,0-6.4,9.4-9,31.4v136.5v461.8c0,0-0.7,21.2,9.2,35.9c0.2,0.2,7,6.5,30.1,6.5h91.7h0h91.7&#10;&#9;&#9;&#9;&#9;c23.2,0,29.9-6.3,30.1-6.5C1024.9,719.9,1024.3,698.6,1024.3,698.6z" style="fill: rgb(34, 75, 121); stroke: rgb(0, 0, 0); stroke-width: 1;" transform="matrix(0.4720069169998169, 0, 0, 0.4720069169998169, -347.28021240234375, -15.61004638671875)"/><path class="st1" d="M893.2,741.1L893.2,741.1h-91.7c-23.2,0-29.9-6.3-30.1-6.5c5.3,8,13.7,14,26.9,13.8h94.9h0h94.9&#10;&#9;&#9;&#9;&#9;c13.2,0.2,21.6-5.9,26.9-13.8c-0.2,0.2-7,6.5-30.1,6.5H893.2z" style="fill: rgb(128, 151, 193); stroke: rgb(0, 0, 0); stroke-width: 1;" transform="matrix(0.4720069169998169, 0, 0, 0.4720069169998169, -347.28021240234375, -15.61004638671875)"/><path d="M 1013.4000244140625 561.2000122070312 L 990.0999755859375 522.7000122070312 L 990.0999755859375 322.5 L 1009.4000244140625 237.10000610351562 L 1012.4000244140625 237.8000030517578 L 993.2000122070312 323 L 993.2000122070312 521.7999877929688 L 1014.7000122070312 557.2000122070312 L 1023.5999755859375 553.0999755859375 L 1024.9000244140625 555.9000244140625 Z" class="st3" style="fill: rgb(35, 31, 32); stroke: rgb(0, 0, 0); stroke-width: 1;" transform="matrix(0.4720069169998169, 0, 0, 0.4720069169998169, -347.28021240234375, -15.61004638671875)"/><path d="M 773 561.2000122070312 L 761.5 555.9000244140625 L 762.7999877929688 553.0999755859375 L 771.7999877929688 557.2000122070312 L 793.2000122070312 521.7999877929688 L 793.2000122070312 323 L 774 237.8000030517578 L 777 237.10000610351562 L 796.2999877929688 322.8999938964844 L 796.2999877929688 522.7000122070312 Z" class="st3" style="fill: rgb(35, 31, 32); stroke: rgb(0, 0, 0); stroke-width: 1;" transform="matrix(0.4720069169998169, 0, 0, 0.4720069169998169, -347.28021240234375, -15.61004638671875)"/><path class="st4" d="M965.5,411.2c0,8.7-7,15.7-15.7,15.7h-114c-8.7,0-15.7-7-15.7-15.7v-60.9c0-8.7,7-15.7,15.7-15.7h114&#10;&#9;&#9;&#9;&#9;c8.7,0,15.7,7,15.7,15.7V411.2z" style="fill: rgb(15, 23, 25); stroke: rgb(0, 0, 0); stroke-width: 1;" transform="matrix(0.4720069169998169, 0, 0, 0.4720069169998169, -347.28021240234375, -15.61004638671875)"/><path d="M 1012.5 262.700012 L 999.099976 324 L 999.099976 412.899994 L 999.099976 521.5 L 1014 546.700012 L 1014 266.200012" class="st4" style="fill: rgb(15, 23, 25); stroke: rgb(0, 0, 0); stroke-width: 1;" transform="matrix(0.4720069169998169, 0, 0, 0.4720069169998169, -347.28021240234375, -15.61004638671875)"/><path d="M 999.0999755859375 554.5 L 999.0999755859375 698.2999877929688 L 1015.9000244140625 711.2000122070312 L 1015.9000244140625 590.2000122070312 Z" class="st4" style="fill: rgb(15, 23, 25); stroke: rgb(0, 0, 0); stroke-width: 1;" transform="matrix(0.4720069169998169, 0, 0, 0.4720069169998169, -347.28021240234375, -15.61004638671875)"/><path d="M 893.2000122070312 735.2000122070312 L 795.5 735.2000122070312 L 811.7000122070312 723 L 893.2000122070312 723 L 974.7000122070312 723 L 990.7999877929688 735.2000122070312 Z" class="st4" style="fill: rgb(15, 23, 25); stroke: rgb(0, 0, 0); stroke-width: 1;" transform="matrix(0.4720069169998169, 0, 0, 0.4720069169998169, -347.28021240234375, -15.61004638671875)"/><path class="st3" d="M1001.8,221.9l-1.8-2.6c2.8-1.9,4.8-23.9,5-43.1l-1.4-115.9l3.1,0l1.4,115.9&#10;&#9;&#9;&#9;&#9;C1008,186,1007.2,218.1,1001.8,221.9z" style="fill: rgb(35, 31, 32); stroke: rgb(0, 0, 0); stroke-width: 1;" transform="matrix(0.4720069169998169, 0, 0, 0.4720069169998169, -347.28021240234375, -15.61004638671875)"/><path d="M 1010.7000122070312 239 L 1005.4000244140625 237.3000030517578 L 1006.4000244140625 234.3000030517578 L 1011 235.8000030517578 L 1024.0999755859375 234.3000030517578 L 1024.4000244140625 237.39999389648438 Z" class="st3" style="fill: rgb(35, 31, 32); stroke: rgb(0, 0, 0); stroke-width: 1;" transform="matrix(0.4720069169998169, 0, 0, 0.4720069169998169, -347.28021240234375, -15.61004638671875)"/><path d="M 999.4000244140625 415.20001220703125 L 991.5999755859375 415.20001220703125 L 991.5999755859375 412.1000061035156 L 998.7999877929688 412.1000061035156 L 1013.7000122070312 406 L 1024 404 L 1024.5999755859375 407.1000061035156 L 1014.5 409 Z" class="st3" style="fill: rgb(35, 31, 32); stroke: rgb(0, 0, 0); stroke-width: 1;" transform="matrix(0.4720069169998169, 0, 0, 0.4720069169998169, -347.28021240234375, -15.61004638671875)"/><path d="M 956.400024 446.399994 H 965.800024 V 686.099991 H 956.400024 V 446.399994 Z" class="st1" style="fill: rgb(128, 151, 193); stroke: rgb(0, 0, 0); stroke-width: 1;" transform="matrix(0.4720069169998169, 0, 0, 0.4720069169998169, -347.28021240234375, -15.61004638671875)"/><path d="M 909.5 446.399994 H 918.9 V 686.099991 H 909.5 V 446.399994 Z" class="st1" style="fill: rgb(128, 151, 193); stroke: rgb(0, 0, 0); stroke-width: 1;" transform="matrix(0.4720069169998169, 0, 0, 0.4720069169998169, -347.28021240234375, -15.61004638671875)"/><path d="M 862.599976 446.399994 H 871.999975 V 686.099991 H 862.599976 V 446.399994 Z" class="st1" style="fill: rgb(128, 151, 193); stroke: rgb(0, 0, 0); stroke-width: 1;" transform="matrix(0.4720069169998169, 0, 0, 0.4720069169998169, -347.28021240234375, -15.61004638671875)"/><path d="M 815.700012 446.399994 H 825.100012 V 686.099991 H 815.700012 V 446.399994 Z" class="st1" style="fill: rgb(128, 151, 193); stroke: rgb(0, 0, 0); stroke-width: 1;" transform="matrix(0.4720069169998169, 0, 0, 0.4720069169998169, -347.28021240234375, -15.61004638671875)"/><path class="st3" d="M1015.8,733.1c-32.9-25.2-32.7-37.8-32.4-39.9V317.1h3.1v376.5l0,0.2c0,0.1-1.4,12,31.2,36.9L1015.8,733.1z" style="fill: rgb(35, 31, 32); stroke: rgb(0, 0, 0); stroke-width: 1;" transform="matrix(0.4720069169998169, 0, 0, 0.4720069169998169, -347.28021240234375, -15.61004638671875)"/><path class="st5" d="M1014,264.1c0,0,3.3-7.1,14.7-1.4c0,0,21.4,9.6,21.4,19.7c0,0,0.2,7.5-6.7,4.3l-22.2-11v-3.3L1014,264.1z" style="fill: rgb(24, 60, 100); stroke: rgb(0, 0, 0); stroke-width: 1;" transform="matrix(0.4720069169998169, 0, 0, 0.4720069169998169, -347.28021240234375, -15.61004638671875)"/><path d="M 773.900024 262.700012 L 787.299988 324 L 787.299988 412.899994 L 787.299988 521.5 L 772.400024 546.700012 L 772.400024 266.200012" class="st4" style="fill: rgb(15, 23, 25); stroke: rgb(0, 0, 0); stroke-width: 1;" transform="matrix(0.4720069169998169, 0, 0, 0.4720069169998169, -347.28021240234375, -15.61004638671875)"/><path d="M 787.2999877929688 554.5 L 787.2999877929688 698.2999877929688 L 770.5 711.2000122070312 L 770.5 590.2000122070312 Z" class="st4" style="fill: rgb(15, 23, 25); stroke: rgb(0, 0, 0); stroke-width: 1;" transform="matrix(0.4720069169998169, 0, 0, 0.4720069169998169, -347.28021240234375, -15.61004638671875)"/><path class="st3" d="M784.7,221.8c-5.5-3.8-6.3-35.8-6.4-45.6l1.4-115.9l3.1,0l-1.4,115.9c0.2,19.1,2.2,41,5,43L784.7,221.8z" style="fill: rgb(35, 31, 32); stroke: rgb(0, 0, 0); stroke-width: 1;" transform="matrix(0.4720069169998169, 0, 0, 0.4720069169998169, -347.28021240234375, -15.61004638671875)"/><path class="st3" d="M1005.8,196.7c-0.6-0.1-64.3-6.7-112.6-6.7c-48.3,0-111.9,6.6-112.6,6.7l-0.3-3.1&#10;&#9;&#9;&#9;&#9;c0.6-0.1,64.4-6.7,112.9-6.7c48.5,0,112.2,6.6,112.9,6.7L1005.8,196.7z" style="fill: rgb(35, 31, 32); stroke: rgb(0, 0, 0); stroke-width: 1;" transform="matrix(0.4720069169998169, 0, 0, 0.4720069169998169, -347.28021240234375, -15.61004638671875)"/><path class="st5" d="M985.2,52.4c0,0,7.2,81.2,8,111.5c0,0,1.8,13.4-8.5,13.2c0,0-54.7-4.2-91.5-4c-36.8-0.1-91.5,4-91.5,4&#10;&#9;&#9;&#9;&#9;c-10.2,0.2-8.5-13.2-8.5-13.2c0.8-30.3,8-111.5,8-111.5l10-2.4c0,0-13.3,77.4-14.1,107.7c0,0-1.8,13.4,8.5,13.2&#10;&#9;&#9;&#9;&#9;c0,0,50.9-3.6,87.6-3.5c36.8-0.1,87.6,3.5,87.6,3.5c10.2,0.2,8.5-13.2,8.5-13.2C988.5,127.5,975.2,50,975.2,50L985.2,52.4z" style="fill: rgb(24, 60, 100); stroke: rgb(0, 0, 0); stroke-width: 1;" transform="matrix(0.4720069169998169, 0, 0, 0.4720069169998169, -347.28021240234375, -15.61004638671875)"/><path d="M 775.7000122070312 239 L 762 237.39999389648438 L 762.2999877929688 234.3000030517578 L 775.4000244140625 235.8000030517578 L 780.2000122070312 234.3000030517578 L 781.0999755859375 237.39999389648438 Z" class="st3" style="fill: rgb(35, 31, 32); stroke: rgb(0, 0, 0); stroke-width: 1;" transform="matrix(0.4720069169998169, 0, 0, 0.4720069169998169, -347.28021240234375, -15.61004638671875)"/><path d="M 794.7999877929688 415.20001220703125 L 786.7000122070312 415.1000061035156 L 771.9000244140625 409 L 761.9000244140625 407.1000061035156 L 762.4000244140625 404 L 773 406 L 787.5999755859375 412.1000061035156 L 794.7999877929688 412.1000061035156 Z" class="st3" style="fill: rgb(35, 31, 32); stroke: rgb(0, 0, 0); stroke-width: 1;" transform="matrix(0.4720069169998169, 0, 0, 0.4720069169998169, -347.28021240234375, -15.61004638671875)"/><path class="st3" d="M770.7,733.1l-1.9-2.5c32.6-24.9,31.2-36.8,31.2-36.9l0-0.3V317.1h3.1v376.2&#10;&#9;&#9;&#9;&#9;C803.3,695.4,803.5,708,770.7,733.1z" style="fill: rgb(35, 31, 32); stroke: rgb(0, 0, 0); stroke-width: 1;" transform="matrix(0.4720069169998169, 0, 0, 0.4720069169998169, -347.28021240234375, -15.61004638671875)"/><path d="M 787.299988 692.400024 H 999.099991 V 695.500024 H 787.299988 V 692.400024 Z" class="st3" style="fill: rgb(35, 31, 32); stroke: rgb(0, 0, 0); stroke-width: 1;" transform="matrix(0.4720069169998169, 0, 0, 0.4720069169998169, -347.28021240234375, -15.61004638671875)"/><path class="st5" d="M772.4,264.1c0,0-3.3-7.1-14.7-1.4c0,0-21.4,9.6-21.4,19.7c0,0-0.2,7.5,6.7,4.3l22.2-11v-3.3L772.4,264.1z" style="fill: rgb(24, 60, 100); stroke: rgb(0, 0, 0); stroke-width: 1;" transform="matrix(0.4720069169998169, 0, 0, 0.4720069169998169, -347.28021240234375, -15.61004638671875)"/><path d="M 893.2000122070312 45.099998474121094 L 893.2000122070312 45.099998474121094 L 893.2000122070312 41.900001525878906 Z" class="st3" style="fill: rgb(35, 31, 32); stroke: rgb(0, 0, 0); stroke-width: 1;" transform="matrix(0.4720069169998169, 0, 0, 0.4720069169998169, -347.28021240234375, -15.61004638671875)"/><path class="st6" d="M918.4,720.1c0,1.6-1.3,2.9-2.9,2.9H871c-1.6,0-2.9-1.3-2.9-2.9l0,0c0-1.6,1.3-3,2.9-3h44.4&#10;&#9;&#9;&#9;&#9;C917,717.1,918.4,718.4,918.4,720.1L918.4,720.1z" style="fill: rgb(237, 28, 36); stroke: rgb(0, 0, 0); stroke-width: 1;" transform="matrix(0.4720069169998169, 0, 0, 0.4720069169998169, -347.28021240234375, -15.61004638671875)"/><path class="st4" d="M893.2,197.5c0,0-123-2.8-112.6,40.7l12.7,55.4c0,0,1.8,12.3,18.9,8.1c0,0,38.5-7.9,81-7.9&#10;&#9;&#9;&#9;&#9;c42.5,0,81,7.9,81,7.9c17,4.2,18.9-8.1,18.9-8.1l12.7-55.4C1016.2,194.7,893.2,197.5,893.2,197.5" style="fill: rgb(15, 23, 25); stroke: rgb(0, 0, 0); stroke-width: 1;" transform="matrix(0.4720069169998169, 0, 0, 0.4720069169998169, -347.28021240234375, -15.61004638671875)"/>
</svg>