<?xml version="1.0" encoding="utf-8"?>
<svg id="master-artboard" viewBox="0 0 151.6591796875 334.917724609375" version="1.1" xmlns="http://www.w3.org/2000/svg" x="0px" y="0px" style="enable-background:new 0 0 1096 780;" width="151.6591796875px" height="334.917724609375px"><rect id="ee-background" x="0" y="0" width="151.6591796875" height="334.917724609375" style="fill: white; fill-opacity: 0; pointer-events: none;"/>

<g transform="matrix(1, 0, 0, 1, -553.6126003265381, -55.502037048339844)">
			<path class="st7" d="M679.9,301.1l17.1,20.2l5-25.6l-7.3-183.4l-13-33L650,59.7c-10-4.4-20.7-3.6-20.7-3.6s-10.8-0.8-20.7,3.6&#10;&#9;&#9;&#9;&#9;l-31.7,19.6l-13,33l-7.2,179.6l4.8,29.4l17.1-20.2l14.7,79.4L560,365.6l1.9,5.6l27.4,12c0,0,12.4,6.4,40,6.4&#10;&#9;&#9;&#9;&#9;c27.6,0,40-6.4,40-6.4l27.4-12l2.1-6.1l-33.5,15.4L679.9,301.1z" style="fill: rgb(255, 255, 255); stroke: rgb(0, 0, 0); stroke-width: 1;"/>
		</g><path d="M 669.299988 80.400002 H 670.799988 V 113.900002 H 669.299988 V 80.400002 Z" transform="matrix(0.98089998960495, 0.19469991326332092, -0.19469991326332092, 0.98089998960495, -521.8702907562256, -184.06883239746094)" class="st8" style="fill: rgb(229, 231, 232); stroke: rgb(0, 0, 0); stroke-width: 1;"/><path class="st4" d="M688.1,133.3l-8.1,123l-7.3,8.1c0,0-3.7-31.9,3.7-62.9L688.1,133.3z" style="fill: rgb(15, 23, 25); stroke: rgb(0, 0, 0); stroke-width: 1;" transform="matrix(1, 0, 0, 1, -553.6126003265381, -55.502037048339844)"/><path d="M 667 185.100006 H 668.5 V 240.800007 H 667 V 185.100006 Z" transform="matrix(0.9894000291824341, 0.14549998939037323, -0.14549998939037323, 0.9894000291824341, -515.5226955413818, -150.38372802734375)" class="st8" style="fill: rgb(229, 231, 232); stroke: rgb(0, 0, 0); stroke-width: 1;"/><path class="st4" d="M629.2,366.5h-22.1l-11.6-18.1h-5.2c-7-41.8,7.4-80.8,7.4-80.8l14.7-8.6h16.9h16.9l14.7,8.6&#10;&#9;&#9;&#9;&#9;c0,0,14.3,39.1,7.4,80.8h-5.3l-11.6,18.1H629.2z" style="fill: rgb(15, 23, 25); stroke: rgb(0, 0, 0); stroke-width: 1;" transform="matrix(1, 0, 0, 1, -553.6126003265381, -55.502037048339844)"/><path d="M 644.0999755859375 219.10000610351562 L 641.9000244140625 259 L 639.7000122070312 219.10000610351562 Z" class="st8" style="fill: rgb(229, 231, 232); stroke: rgb(0, 0, 0); stroke-width: 1;" transform="matrix(1, 0, 0, 1, -553.6126003265381, -55.502037048339844)"/><path d="M 571.700012 96.5 H 605.200012 V 98 H 571.700012 V 96.5 Z" transform="matrix(0.1939999908208847, 0.9810000061988831, -0.9810000061988831, 0.1939999908208847, 16.08582878112793, -554.47412109375)" class="st8" style="fill: rgb(229, 231, 232); stroke: rgb(0, 0, 0); stroke-width: 1;"/><path class="st4" d="M570.4,133.3l8.1,123l7.3,8.1c0,0,3.7-31.9-3.7-62.9L570.4,133.3z" style="fill: rgb(15, 23, 25); stroke: rgb(0, 0, 0); stroke-width: 1;" transform="matrix(1, 0, 0, 1, -553.6126003265381, -55.502037048339844)"/><path d="M 680.2000122070312 306.20001220703125 L 672 264.79998779296875 L 645 248 L 613.5 248 L 586.5 264.79998779296875 L 578.2999877929688 306.20001220703125 L 573.5 253.1999969482422 L 578.2999877929688 253.1999969482422 L 578.2999877929688 254.6999969482422 L 575.0999755859375 254.6999969482422 L 578.7999877929688 295.8999938964844 L 585.0999755859375 263.8999938964844 L 613.0999755859375 246.5 L 645.4000244140625 246.5 L 673.2999877929688 263.8999938964844 L 679.7000122070312 295.8999938964844 L 683.4000244140625 254.6999969482422 L 680.2000122070312 254.6999969482422 L 680.2000122070312 253.1999969482422 L 685 253.1999969482422 Z" class="st8" style="fill: rgb(229, 231, 232); stroke: rgb(0, 0, 0); stroke-width: 1;" transform="matrix(1, 0, 0, 1, -553.6126003265381, -55.502037048339844)"/><path d="M 562.700012 212.199997 H 618.400013 V 213.699997 H 562.700012 V 212.199997 Z" transform="matrix(0.15210002660751343, 0.9884002208709717, -0.9884002208709717, 0.15210002660751343, 157.62720680236816, -458.66424560546875)" class="st8" style="fill: rgb(229, 231, 232); stroke: rgb(0, 0, 0); stroke-width: 1;"/><path class="st8" d="M578.6,301.1l-17.1,20.2l-4.8-29.4l-0.5,12.6c0,0-3.3,27.8-1.1,46.4l5,14.7l33.3,14.8L578.6,301.1z" style="fill: rgb(229, 231, 232); stroke: rgb(0, 0, 0); stroke-width: 1;" transform="matrix(1, 0, 0, 1, -553.6126003265381, -55.502037048339844)"/><path class="st8" d="M702.4,304.5l-0.4-8.8l-5,25.6l-17.1-20.2l-14.7,79.4l33.5-15.4l4.8-14.2&#10;&#9;&#9;&#9;&#9;C705.7,332.3,702.4,304.5,702.4,304.5z" style="fill: rgb(229, 231, 232); stroke: rgb(0, 0, 0); stroke-width: 1;" transform="matrix(1, 0, 0, 1, -553.6126003265381, -55.502037048339844)"/><path d="M 618.7999877929688 219.10000610351562 L 616.5999755859375 259 L 614.4000244140625 219.10000610351562 Z" class="st8" style="fill: rgb(229, 231, 232); stroke: rgb(0, 0, 0); stroke-width: 1;" transform="matrix(1, 0, 0, 1, -553.6126003265381, -55.502037048339844)"/><path d="M 669.5 379.79998779296875 L 669.5 381.6000061035156 L 692.2999877929688 371.6000061035156 L 692 369.70001220703125 Z" class="st6" style="fill: rgb(237, 28, 36); stroke: rgb(0, 0, 0); stroke-width: 1;" transform="matrix(1, 0, 0, 1, -553.6126003265381, -55.502037048339844)"/><path class="st6" d="M668.8,382.8v-3.4l23.7-10.7l0.7,3.4L668.8,382.8z M670.3,380.3v0.2l21.2-9.4l-0.1-0.4L670.3,380.3z" style="fill: rgb(237, 28, 36); stroke: rgb(0, 0, 0); stroke-width: 1;" transform="matrix(1, 0, 0, 1, -553.6126003265381, -55.502037048339844)"/><path d="M 588.4000244140625 379.79998779296875 L 588.4000244140625 381.6000061035156 L 565.5999755859375 371.6000061035156 L 566 369.70001220703125 Z" class="st6" style="fill: rgb(237, 28, 36); stroke: rgb(0, 0, 0); stroke-width: 1;" transform="matrix(1, 0, 0, 1, -553.6126003265381, -55.502037048339844)"/><path class="st6" d="M589.1,382.8L564.8,372l0.7-3.4l23.7,10.7V382.8z M566.4,371.1l21.2,9.4v-0.2l-21.2-9.5L566.4,371.1z" style="fill: rgb(237, 28, 36); stroke: rgb(0, 0, 0); stroke-width: 1;" transform="matrix(1, 0, 0, 1, -553.6126003265381, -55.502037048339844)"/><path class="st9" d="M651.1,62.1l28.4,17.6l6.4,16.7c0,0-10.6,0.9-12.6-15.6L651.1,62.1z" style="fill: rgb(244, 205, 40); stroke: rgb(0, 0, 0); stroke-width: 1;" transform="matrix(1, 0, 0, 1, -553.6126003265381, -55.502037048339844)"/><path class="st9" d="M607.4,62.1L579,79.7l-6.4,16.7c0,0,10.6,0.9,12.6-15.6L607.4,62.1z" style="fill: rgb(244, 205, 40); stroke: rgb(0, 0, 0); stroke-width: 1;" transform="matrix(1, 0, 0, 1, -553.6126003265381, -55.502037048339844)"/><path class="st4" d="M629.2,179.3c-24,0.2-43.4,7.3-43.4,7.3l-11-57c18.3-27.4,54.4-25.4,54.4-25.4s36.1-2,54.4,25.4l-11,57&#10;&#9;&#9;&#9;&#9;C672.7,186.6,653.2,179.5,629.2,179.3z" style="fill: rgb(15, 23, 25); stroke: rgb(0, 0, 0); stroke-width: 1;" transform="matrix(1, 0, 0, 1, -553.6126003265381, -55.502037048339844)"/>
</svg>