<?xml version="1.0" encoding="utf-8"?>
<svg id="master-artboard" viewBox="0 0 165.08343505859375 338.79644775390625" version="1.1" xmlns="http://www.w3.org/2000/svg" x="0px" y="0px" style="enable-background:new 0 0 1096 780;" width="165.08343505859375px" height="338.79644775390625px"><rect id="ee-background" x="0" y="0" width="165.08343505859375" height="338.79644775390625" style="fill: white; fill-opacity: 0; pointer-events: none;"/>

<g transform="matrix(1, 0, 0, 1, -547.0143636465073, -408.3198547363281)">
			<path class="st9" d="M629.5,745h-11.3v1.6c-15.6-0.7-26.4-3.4-26.4-3.4c-50.5-11.4-28.7-99.4-28.7-99.4&#10;&#9;&#9;&#9;&#9;c-5.3-49.4-0.2-125.5-0.2-125.5c-2.5-0.9-15.4,4.7-15.4,4.7c-0.1-6.6,10.7-13.9,10.7-13.9c-3.1-36,0-53.6,0-53.6&#10;&#9;&#9;&#9;&#9;c5.9-50.5,71.3-46.3,71.3-46.3s65.3-4.2,71.3,46.3c0,0,3.1,17.6,0,53.6c0,0,10.8,7.4,10.7,13.9c0,0-12.8-5.6-15.4-4.7&#10;&#9;&#9;&#9;&#9;c0,0,5.1,76.1-0.2,125.5c0,0,21.9,88-28.7,99.4c0,0-10.7,2.7-26.4,3.4V745H629.5z" style="fill: rgb(244, 205, 40); stroke: rgb(0, 0, 0); stroke-width: 1;"/>
		</g><path d="M 692.9000244140625 510.8999938964844 L 686.0999755859375 559.2000122070312 L 686.0999755859375 591.0999755859375 L 686.0999755859375 622.9000244140625 L 692.9000244140625 671.2000122070312 Z" class="st4" style="fill: rgb(15, 23, 25);" transform="matrix(1, 0, 0, 1, -547.0143636465073, -408.3198547363281)"/><path d="M 636.4 419.100006 A 6.9 3.3 0 0 1 629.5 422.400006 A 6.9 3.3 0 0 1 622.6 419.100006 A 6.9 3.3 0 0 1 629.5 415.800006 A 6.9 3.3 0 0 1 636.4 419.100006 Z" class="st10" style="fill: rgb(167, 169, 172);" transform="matrix(1, 0, 0, 1, -547.0143636465073, -408.3198547363281)"/><path d="M 636.4 732.5 A 6.9 3.3 0 0 1 629.5 735.8 A 6.9 3.3 0 0 1 622.6 732.5 A 6.9 3.3 0 0 1 629.5 729.2 A 6.9 3.3 0 0 1 636.4 732.5 Z" class="st10" style="fill: rgb(167, 169, 172);" transform="matrix(1, 0, 0, 1, -547.0143636465073, -408.3198547363281)"/><path class="st11" d="M675.2,658.5c-2.6-41.5,5.7-116.2,5.8-117l1.3,0.1c-0.1,0.8-8.4,75.3-5.8,116.8L675.2,658.5z" style="fill: rgb(180, 144, 4);" transform="matrix(1, 0, 0, 1, -547.0143636465073, -408.3198547363281)"/><path class="st6" d="M643.9,726.4c0,0.6-0.5,1.1-1.1,1.1h-26.6c-0.6,0-1.1-0.5-1.1-1.1l0,0c0-0.6,0.5-1.1,1.1-1.1h26.6&#10;&#9;&#9;&#9;&#9;C643.4,725.3,643.9,725.8,643.9,726.4L643.9,726.4z" style="fill: rgb(237, 28, 36);" transform="matrix(1, 0, 0, 1, -547.0143636465073, -408.3198547363281)"/><path class="st11" d="M693.8,501l-0.2-1.3c4.8-0.6,4.9-19.9,3.9-32c-1.3-18.8-11.7-27.5-11.8-27.6l0.8-1&#10;&#9;&#9;&#9;&#9;c0.4,0.4,11,9.1,12.3,28.5C699.1,470.9,701.3,500.1,693.8,501z" style="fill: rgb(180, 144, 4);" transform="matrix(1, 0, 0, 1, -547.0143636465073, -408.3198547363281)"/><path class="st11" d="M695.4,518.5c-0.7-3.2,0.2-6.2,0.7-7.4l-3.1-1.3l0-0.5c1.5-35.6-19.8-73.9-20.1-74.3&#10;&#9;&#9;&#9;&#9;c-11.5-21-43.2-19.9-43.5-19.9c-0.4,0-32-1.1-43.5,19.9c-0.2,0.4-21.6,38.7-20.1,74.3l0,0.5l-3.1,1.3c0.5,1.3,1.4,4.3,0.7,7.4&#10;&#9;&#9;&#9;&#9;l-1.3-0.3c0.8-3.7-0.9-7.2-0.9-7.2l-0.3-0.6l3.5-1.4c-1.3-35.9,20-74.2,20.3-74.6c11.9-21.7,44.4-20.5,44.7-20.5&#10;&#9;&#9;&#9;&#9;c0.3,0,32.7-1.1,44.6,20.5c0.2,0.4,21.6,38.7,20.3,74.6l3.5,1.4l-0.3,0.6c0,0-1.7,3.6-0.9,7.2L695.4,518.5z" style="fill: rgb(180, 144, 4);" transform="matrix(1, 0, 0, 1, -547.0143636465073, -408.3198547363281)"/><path d="M 566.2000122070312 510.8999938964844 L 573 559.2000122070312 L 573 591.0999755859375 L 573 622.9000244140625 L 566.2000122070312 671.2000122070312 Z" class="st4" style="fill: rgb(15, 23, 25);" transform="matrix(1, 0, 0, 1, -547.0143636465073, -408.3198547363281)"/><path d="M 586.199987 722 A 10.9 5.1 0 0 1 575.299988 727.1 A 10.9 5.1 0 0 1 564.399988 722 A 10.9 5.1 0 0 1 575.299988 716.9 A 10.9 5.1 0 0 1 586.199987 722 Z" transform="matrix(-0.8131002187728882, -0.5820997953414917, 0.5820997953414917, -0.8131002187728882, 75.7064768075943, 1235.5762939453125)" class="st6" style="fill: rgb(237, 28, 36);"/><path d="M 694.699987 722 A 10.9 5.1 0 0 1 683.799988 727.1 A 10.9 5.1 0 0 1 672.899988 722 A 10.9 5.1 0 0 1 683.799988 716.9 A 10.9 5.1 0 0 1 694.699987 722 Z" transform="matrix(0.8131002187728882, -0.5820997953414917, 0.5820997953414917, 0.8131002187728882, -839.4919637441635, 124.61636352539062)" class="st6" style="fill: rgb(237, 28, 36);"/><path class="st11" d="M583.9,658.8l-1.3-0.1c2.6-41.4-6-116.3-6-117.1l1.3-0.2C577.9,542.3,586.5,617.3,583.9,658.8z" style="fill: rgb(180, 144, 4);" transform="matrix(1, 0, 0, 1, -547.0143636465073, -408.3198547363281)"/><path class="st11" d="M566.2,671.2c0,0,0.8,3,2.6,8.1c0.9,2.5,2.1,5.6,3.6,9.1c0.8,1.7,1.6,3.5,2.5,5.4c0.4,1,0.9,1.9,1.4,2.9&#10;&#9;&#9;&#9;&#9;c0.5,1,1,2,1.5,3c2.2,4.1,4.7,8.4,7.8,12.6c3.1,4.3,6.8,8.5,11.1,12.3c4.3,3.8,9.4,7,15,9.2c5.6,2.3,11.7,3.4,17.8,3.4&#10;&#9;&#9;&#9;&#9;c1.5-0.1,3.1-0.1,4.6-0.2c1.5-0.2,3-0.3,4.5-0.6c3-0.6,5.9-1.4,8.7-2.6c5.6-2.2,10.6-5.5,15-9.2c4.3-3.8,8-8,11.1-12.3&#10;&#9;&#9;&#9;&#9;c3.1-4.3,5.7-8.6,7.8-12.6c1.1-2,2-4,2.9-5.9c0.9-1.9,1.8-3.7,2.5-5.4c1.5-3.4,2.7-6.5,3.6-9.1c1.8-5.1,2.6-8.1,2.6-8.1&#10;&#9;&#9;&#9;&#9;s-0.6,3-2.1,8.2c-0.8,2.6-1.8,5.7-3.1,9.3c-0.7,1.8-1.4,3.6-2.3,5.6c-0.8,2-1.9,3.9-3,6c-2.2,4.1-4.8,8.5-7.9,12.8&#10;&#9;&#9;&#9;&#9;c-3.2,4.3-6.9,8.6-11.3,12.5c-4.4,3.8-9.6,7.2-15.3,9.5c-2.9,1.2-5.9,2-8.9,2.6c-1.5,0.3-3.1,0.4-4.7,0.7&#10;&#9;&#9;&#9;&#9;c-1.5,0.1-3.1,0.1-4.6,0.2c-6.3,0-12.6-1.2-18.3-3.5c-5.7-2.3-10.9-5.6-15.3-9.5c-4.4-3.9-8.1-8.2-11.3-12.5&#10;&#9;&#9;&#9;&#9;c-3.2-4.3-5.8-8.7-7.9-12.8c-1.1-2.1-2.1-4.1-3-6c-0.8-2-1.6-3.8-2.3-5.6c-1.3-3.5-2.4-6.7-3.1-9.3&#10;&#9;&#9;&#9;&#9;C566.7,674.3,566.2,671.2,566.2,671.2z" style="fill: rgb(180, 144, 4);" transform="matrix(1, 0, 0, 1, -547.0143636465073, -408.3198547363281)"/><path class="st11" d="M565.3,501c-7.6-0.9-5.3-30.1-5-33.4c1.3-19.4,11-28.1,11.4-28.5l0.9,1c-0.1,0.1-9.7,8.8-11,27.6&#10;&#9;&#9;&#9;&#9;c-1,12.1-0.9,31.4,3.9,32L565.3,501z" style="fill: rgb(180, 144, 4);" transform="matrix(1, 0, 0, 1, -547.0143636465073, -408.3198547363281)"/><path d="M 694.699987 434.299988 A 10.9 5.1 0 0 1 683.799988 439.399988 A 10.9 5.1 0 0 1 672.899988 434.299988 A 10.9 5.1 0 0 1 683.799988 429.199988 A 10.9 5.1 0 0 1 694.699987 434.299988 Z" transform="matrix(0.8131002187728882, 0.5820997953414917, -0.5820997953414917, 0.8131002187728882, -166.4330495595932, -725.179443359375)" class="st12" style="fill: rgb(241, 242, 242);"/><path d="M 586.199987 434.299988 A 10.9 5.1 0 0 1 575.299988 439.399988 A 10.9 5.1 0 0 1 564.399988 434.299988 A 10.9 5.1 0 0 1 575.299988 429.199988 A 10.9 5.1 0 0 1 586.199987 434.299988 Z" transform="matrix(-0.8131002187728882, 0.5820997953414917, -0.5820997953414917, -0.8131002187728882, 748.7876383066177, 44.25213623046875)" class="st12" style="fill: rgb(241, 242, 242);"/><path class="st4" d="M629.5,535.1c-31.5,0.7-53.5,8.1-53.5,8.1c-0.7-18.4-6.8-51-6.8-51c15.4-28.4,60.3-28.1,60.3-28.1&#10;&#9;&#9;&#9;&#9;s44.8-0.3,60.3,28.1c0,0-6.1,32.5-6.8,51C683,543.2,661,535.7,629.5,535.1z" style="fill: rgb(15, 23, 25);" transform="matrix(1, 0, 0, 1, -547.0143636465073, -408.3198547363281)"/><path class="st4" d="M629.5,722c-29.5,0.2-45.4-14.1-45.4-14.1l-1.8-50.3c11.2,4.8,47.1,5.5,47.1,5.5s35.9-0.7,47.1-5.5&#10;&#9;&#9;&#9;&#9;l-1.8,50.3C674.9,707.9,659.1,722.2,629.5,722z" style="fill: rgb(15, 23, 25);" transform="matrix(1, 0, 0, 1, -547.0143636465073, -408.3198547363281)"/>
</svg>